<?xml version="1.0" encoding="utf-8"?>
<!-- Generator: Adobe Illustrator 16.0.0, SVG Export Plug-In . SVG Version: 6.00 Build 0)  -->
<!DOCTYPE svg PUBLIC "-//W3C//DTD SVG 1.1//EN" "http://www.w3.org/Graphics/SVG/1.1/DTD/svg11.dtd">
<svg version="1.1" id="Layer_1" xmlns="http://www.w3.org/2000/svg" xmlns:xlink="http://www.w3.org/1999/xlink" x="0px" y="0px"
	 width="365px" height="210px" viewBox="0 0 365 210" enable-background="new 0 0 365 210" xml:space="preserve">
<g>
	<path fill-rule="evenodd" clip-rule="evenodd" fill="#F16624" d="M279.77,136.189c0-0.113,0.004-0.225,0.004-0.338
		c0-58.575-43.387-106.06-96.902-106.06c-53.518,0-96.902,47.485-96.902,106.06c0,0.113,0.005,0.225,0.005,0.338H279.77
		L279.77,136.189z"/>
	<path fill-rule="evenodd" clip-rule="evenodd" fill="#F89520" d="M262.488,136.189c0-0.092,0.002-0.184,0.002-0.277
		c0-48.129-35.646-87.145-79.619-87.145c-43.973,0-79.62,39.016-79.62,87.145c0,0.094,0.003,0.186,0.003,0.277H262.488
		L262.488,136.189z"/>
	<polygon fill-rule="evenodd" clip-rule="evenodd" fill="#442162" points="114.777,122.425 153.811,119.458 153.811,107.534 
		114.777,114.994 114.777,122.425 	"/>
	<polygon fill-rule="evenodd" clip-rule="evenodd" fill="#442162" points="158.029,119.137 206.315,115.467 206.315,97.501 
		158.029,106.729 158.029,119.137 	"/>
	<path fill-rule="evenodd" clip-rule="evenodd" fill="#442162" d="M274.76,34.535c0-0.036-0.01-0.072-0.016-0.109
		c-0.298-13.446-10.342-24.246-22.699-24.246c-4.811,0-9.271,1.642-12.941,4.434c-5.038-7.198-12.969-11.846-21.895-11.846
		c-12.447,0-22.961,9.026-26.388,21.421c-4.718,0.728-8.968,3.043-12.29,6.435c-2.494-2.191-5.657-3.508-9.104-3.508
		c-8.044,0-14.564,7.137-14.564,15.941c0,8.805,6.52,15.94,14.564,15.94c1.266,0,2.488-0.194,3.659-0.527
		c3.447,8.925,11.521,15.188,20.931,15.188c0.064,0,0.126-0.006,0.194-0.007l-15.053,8.395l-21.13-6.931l-31.107,17.749
		l-12.166-4.237L85.181,106.57v29.619h195.379L274.76,34.535L274.76,34.535z M215.485,129.84l-128.369,4.233v-26.307l27.64-14.954
		v8.553l43.273-20.44v14.396l57.456-26.124V129.84L215.485,129.84z M255.945,73.35l-36.256-10.36
		c6.842-0.67,12.961-4.072,17.447-9.206c3.99,3.805,9.2,6.114,14.908,6.114c1.564,0,3.092-0.173,4.565-0.502L255.945,73.35
		L255.945,73.35z M266.276,76.176l-7.751-2.328l1.152-37.018c0-2.231,3.063-2.634,6.599-2.634V76.176L266.276,76.176z
		 M270.099,31.611c-0.25-0.049-0.509-0.093-0.772-0.132c-0.061-0.009-0.123-0.018-0.185-0.026c-0.229-0.032-0.462-0.06-0.697-0.083
		c-0.083-0.008-0.167-0.017-0.249-0.025c-0.229-0.021-0.462-0.036-0.697-0.049c-0.087-0.005-0.17-0.012-0.258-0.016
		c-0.316-0.014-0.637-0.022-0.964-0.022c-0.282,0-0.558,0.006-0.831,0.017c-0.098,0.003-0.189,0.009-0.285,0.014
		c-0.174,0.009-0.35,0.018-0.521,0.031c-0.113,0.008-0.225,0.02-0.334,0.03c-0.148,0.014-0.299,0.027-0.444,0.044
		c-0.12,0.014-0.235,0.029-0.353,0.045c-0.131,0.017-0.264,0.035-0.391,0.055c-0.125,0.019-0.248,0.041-0.368,0.063
		c-0.112,0.021-0.226,0.041-0.337,0.063c-0.128,0.025-0.254,0.053-0.377,0.08c-0.096,0.022-0.191,0.043-0.284,0.067
		c-0.132,0.031-0.263,0.065-0.388,0.1c-0.076,0.021-0.15,0.042-0.224,0.064c-0.136,0.041-0.27,0.081-0.399,0.125
		c-0.053,0.018-0.103,0.036-0.156,0.054c-0.143,0.051-0.281,0.101-0.416,0.154c-0.022,0.009-0.041,0.018-0.063,0.028
		c-1.175,0.481-1.97,1.099-2.22,1.787c-0.965-1.689-1.529-3.683-1.529-5.825h-1.463c0,3.15,1.064,6.021,2.807,8.23l-0.938,19.741
		c-1.829,0.62-3.773,0.954-5.789,0.954c-4.776,0-9.146-1.885-12.542-5.001c1.276-1.692,2.392-3.533,3.313-5.503l-3.657-1.836
		c-0.879,2.017-1.983,3.891-3.279,5.588c-4.447,5.833-11.138,9.546-18.621,9.546c-1.82,0-3.588-0.231-5.291-0.648
		c-1.89-0.463-3.694-1.166-5.389-2.078l-1.333,2.288c1.581,0.932,3.26,1.69,5.01,2.272c-3.599,5.386-9.411,8.887-15.974,8.887
		c-8.105,0-15.059-5.344-18.113-12.981c1.413-0.661,2.71-1.549,3.856-2.637l-1.433-1.667c-1.117,1.144-2.423,2.061-3.866,2.694
		c-1.43,0.633-2.987,0.994-4.623,0.994c-6.865,0-12.427-6.091-12.427-13.603c0-7.512,5.563-13.603,12.427-13.603
		c3.771,0,7.143,1.846,9.422,4.75c3.488-4.275,8.503-7.021,14.109-7.218c2.488-11.765,12.116-20.539,23.623-20.539
		c9.09,0,17.006,5.478,21.16,13.578c3.522-3.752,8.328-6.067,13.627-6.067c9.496,0,17.403,7.406,19.177,17.226
		C270.132,31.616,270.115,31.614,270.099,31.611L270.099,31.611z"/>
	<polygon fill-rule="evenodd" clip-rule="evenodd" fill="#442162" points="90.483,124.271 112.264,122.615 112.264,115.474 
		90.483,119.637 90.483,124.271 	"/>
	<path fill-rule="evenodd" clip-rule="evenodd" fill="#FFFFFF" d="M158.029,80.925l-43.273,20.44v-8.553l-27.64,14.954v26.307
		l128.369-4.233V69.197l-57.456,26.124V80.925L158.029,80.925z M112.264,122.615l-21.78,1.656v-4.635l21.78-4.163V122.615
		L112.264,122.615z M153.811,119.458l-39.034,2.967v-7.431l39.034-7.46V119.458L153.811,119.458z M206.315,97.501v17.966
		l-48.286,3.67v-12.408L206.315,97.501L206.315,97.501z"/>
	<path fill-rule="evenodd" clip-rule="evenodd" fill="#FFFFFF" d="M250.973,14.394c-5.299,0-10.104,2.315-13.627,6.067
		c-4.154-8.1-12.07-13.578-21.16-13.578c-11.507,0-21.135,8.773-23.623,20.539c-5.606,0.198-10.621,2.943-14.109,7.218
		c-2.28-2.903-5.652-4.75-9.422-4.75c-6.865,0-12.427,6.091-12.427,13.603c0,7.512,5.563,13.603,12.427,13.603
		c1.636,0,3.193-0.36,4.623-0.994c1.442-0.633,2.749-1.55,3.866-2.694l1.433,1.667c-1.146,1.088-2.443,1.976-3.856,2.637
		c3.054,7.637,10.007,12.981,18.113,12.981c6.563,0,12.375-3.501,15.974-8.887c-1.75-0.582-3.429-1.34-5.01-2.272l1.333-2.288
		c1.694,0.912,3.499,1.615,5.389,2.078c1.703,0.417,3.471,0.648,5.291,0.648c7.483,0,14.174-3.714,18.621-9.546
		c1.296-1.697,2.4-3.571,3.279-5.588l3.657,1.836c-0.921,1.97-2.036,3.811-3.313,5.503c3.396,3.117,7.766,5.001,12.542,5.001
		c2.018,0,3.96-0.334,5.789-0.954l0.938-19.74c-1.742-2.21-2.807-5.081-2.807-8.231h1.463c0,2.142,0.564,4.135,1.529,5.825
		c0.576-1.593,4.107-2.821,8.392-2.821c1.396,0,2.71,0.132,3.873,0.363C268.376,21.799,260.469,14.394,250.973,14.394
		L250.973,14.394z"/>
	<path fill-rule="evenodd" clip-rule="evenodd" fill="#FFFFFF" d="M259.678,36.83l-1.152,37.018l7.751,2.328V34.196
		C262.74,34.196,259.678,34.599,259.678,36.83L259.678,36.83z"/>
	<g>
		<path fill="#FFFFFF" d="M20.387,167.205c0,2.859-0.067,4.884-0.202,6.073s-0.557,2.276-1.266,3.261s-1.667,1.74-2.874,2.268
			s-2.613,0.791-4.219,0.791c-1.523,0-2.892-0.249-4.104-0.747s-2.188-1.245-2.927-2.241s-1.178-2.08-1.318-3.252
			s-0.211-3.223-0.211-6.152v-4.869c0-2.859,0.067-4.884,0.202-6.073s0.557-2.276,1.266-3.261s1.667-1.74,2.874-2.268
			s2.613-0.791,4.219-0.791c1.523,0,2.892,0.249,4.104,0.747s2.188,1.245,2.927,2.241s1.178,2.08,1.318,3.252
			s0.211,3.223,0.211,6.152V167.205z M12.986,157.854c0-1.324-0.073-2.171-0.22-2.54s-0.448-0.554-0.905-0.554
			c-0.387,0-0.683,0.149-0.888,0.448s-0.308,1.181-0.308,2.646v13.289c0,1.652,0.067,2.672,0.202,3.059s0.448,0.58,0.94,0.58
			c0.504,0,0.826-0.223,0.967-0.668s0.211-1.506,0.211-3.182V157.854z"/>
		<path fill="#FFFFFF" d="M40.057,167.205c0,2.859-0.067,4.884-0.202,6.073s-0.557,2.276-1.266,3.261s-1.667,1.74-2.874,2.268
			s-2.613,0.791-4.219,0.791c-1.523,0-2.892-0.249-4.104-0.747s-2.188-1.245-2.927-2.241s-1.178-2.08-1.318-3.252
			s-0.211-3.223-0.211-6.152v-4.869c0-2.859,0.067-4.884,0.202-6.073s0.557-2.276,1.266-3.261s1.667-1.74,2.874-2.268
			s2.613-0.791,4.219-0.791c1.523,0,2.892,0.249,4.104,0.747s2.188,1.245,2.927,2.241s1.178,2.08,1.318,3.252
			s0.211,3.223,0.211,6.152V167.205z M32.656,157.854c0-1.324-0.073-2.171-0.22-2.54s-0.448-0.554-0.905-0.554
			c-0.387,0-0.683,0.149-0.888,0.448s-0.308,1.181-0.308,2.646v13.289c0,1.652,0.067,2.672,0.202,3.059s0.448,0.58,0.94,0.58
			c0.504,0,0.826-0.223,0.967-0.668s0.211-1.506,0.211-3.182V157.854z"/>
		<path fill="#FFFFFF" d="M59.727,167.205c0,2.859-0.067,4.884-0.202,6.073s-0.557,2.276-1.266,3.261s-1.667,1.74-2.874,2.268
			s-2.613,0.791-4.219,0.791c-1.523,0-2.892-0.249-4.104-0.747s-2.188-1.245-2.927-2.241s-1.178-2.08-1.318-3.252
			s-0.211-3.223-0.211-6.152v-4.869c0-2.859,0.067-4.884,0.202-6.073s0.557-2.276,1.266-3.261s1.667-1.74,2.874-2.268
			s2.613-0.791,4.219-0.791c1.523,0,2.892,0.249,4.104,0.747s2.188,1.245,2.927,2.241s1.178,2.08,1.318,3.252
			s0.211,3.223,0.211,6.152V167.205z M52.326,157.854c0-1.324-0.073-2.171-0.22-2.54s-0.448-0.554-0.905-0.554
			c-0.387,0-0.683,0.149-0.888,0.448s-0.308,1.181-0.308,2.646v13.289c0,1.652,0.067,2.672,0.202,3.059s0.448,0.58,0.94,0.58
			c0.504,0,0.826-0.223,0.967-0.668s0.211-1.506,0.211-3.182V157.854z"/>
		<path fill="#FFFFFF" d="M69.465,157.238h4.166l-1.477,9.545l1.477,10.037h-4.166l-1.477-10.037L69.465,157.238z M75.916,157.238
			h4.166l-1.494,9.545l1.494,10.037h-4.166l-1.494-10.037L75.916,157.238z"/>
		<path fill="#FFFFFF" d="M99.207,150.541V179h-7.4v-11.953h-2.215V179h-7.4v-28.459h7.4v10.178h2.215v-10.178H99.207z"/>
		<path fill="#FFFFFF" d="M102.178,150.541h12.34v5.695h-4.939v5.396h4.623v5.414h-4.623v6.258h5.432V179h-12.832V150.541z"/>
		<path fill="#FFFFFF" d="M117.137,150.541h7.383c2.332,0,4.099,0.182,5.3,0.545s2.171,1.098,2.909,2.204s1.107,2.89,1.107,5.349
			c0,1.664-0.261,2.822-0.782,3.479s-1.55,1.16-3.085,1.511c1.711,0.388,2.871,1.028,3.48,1.926s0.914,2.272,0.914,4.124v2.639
			c0,1.924-0.22,3.348-0.659,4.273c-0.439,0.927-1.14,1.561-2.101,1.9s-2.93,0.51-5.906,0.51h-8.561V150.541z M124.537,155.41v6.328
			c0.316-0.012,0.563-0.018,0.738-0.018c0.727,0,1.189-0.179,1.389-0.536s0.299-1.38,0.299-3.067c0-0.891-0.082-1.515-0.246-1.872
			s-0.378-0.583-0.642-0.677S125.299,155.422,124.537,155.41z M124.537,166.168v7.963c1.043-0.035,1.708-0.199,1.995-0.492
			s0.431-1.014,0.431-2.162v-2.654c0-1.219-0.129-1.957-0.387-2.215S125.639,166.203,124.537,166.168z"/>
		<path fill="#FFFFFF" d="M149.81,150.541L154.042,179h-7.563l-0.397-5.115h-2.647L142.99,179h-7.651l3.775-28.459H149.81z
			 M145.888,168.84c-0.375-3.224-0.75-7.207-1.127-11.953c-0.754,5.449-1.228,9.434-1.42,11.953H145.888z"/>
		<path fill="#FFFFFF" d="M163.789,164.885v4.904h-9.334v-4.904H163.789z"/>
		<path fill="#FFFFFF" d="M178.691,150.541L182.923,179h-7.563l-0.397-5.115h-2.647L171.871,179h-7.651l3.775-28.459H178.691z
			 M174.769,168.84c-0.375-3.224-0.75-7.207-1.127-11.953c-0.754,5.449-1.228,9.434-1.42,11.953H174.769z"/>
		<path fill="#FFFFFF" d="M199.086,150.541v5.695h-4.395V179h-7.4v-22.764h-4.377v-5.695H199.086z"/>
		<path fill="#FFFFFF" d="M215.68,150.541v5.695h-4.395V179h-7.4v-22.764h-4.377v-5.695H215.68z"/>
		<path fill="#FFFFFF" d="M217.367,150.541h7.453c2.016,0,3.565,0.158,4.649,0.475s1.898,0.773,2.443,1.371s0.914,1.321,1.107,2.171
			s0.29,2.165,0.29,3.946v2.479c0,1.816-0.188,3.141-0.563,3.973s-1.063,1.471-2.065,1.916s-2.312,0.668-3.929,0.668h-1.986V179
			h-7.4V150.541z M224.768,155.41v7.242c0.211,0.012,0.393,0.018,0.545,0.018c0.68,0,1.151-0.167,1.415-0.501
			s0.396-1.028,0.396-2.083v-2.338c0-0.973-0.152-1.605-0.457-1.898S225.729,155.41,224.768,155.41z"/>
		<path fill="#FFFFFF" d="M248.23,150.541L252.462,179h-7.563l-0.396-5.115h-2.647L241.41,179h-7.651l3.774-28.459H248.23z
			 M244.308,168.84c-0.374-3.224-0.75-7.207-1.127-11.953c-0.754,5.449-1.228,9.434-1.42,11.953H244.308z"/>
		<path fill="#FFFFFF" d="M253.719,150.523h7.418l0.035,12.023c1.395-0.035,2.115-0.809,2.162-2.32l0.141-5.555
			c0.047-2.051,0.445-3.434,1.195-4.148h6.838c-0.668,0.691-0.996,2.121-0.984,4.289l0.035,4.887
			c0.023,2.953-1.641,4.635-4.992,5.045c3.352,0.41,5.016,2.115,4.992,5.115l-0.035,4.535c-0.012,2.156,0.316,3.691,0.984,4.605
			h-6.838c-0.797-0.715-1.195-2.098-1.195-4.148v-5.555c0-0.703-0.214-1.269-0.642-1.696s-0.981-0.647-1.661-0.659L261.137,179
			h-7.418V150.523z"/>
		<path fill="#FFFFFF" d="M291.564,183.904h-5.115V179h-13.43v-28.477h7.418v22.781h2.197v-22.781h7.418v22.781h1.512V183.904z"/>
		<path fill="#FFFFFF" d="M310.057,179h-6.188v-12.955L300.02,179h-6.486v-28.477h6.188v12.85l4.148-12.85h6.188V179z"/>
		<path fill="#FFFFFF" d="M329.92,167.205c0,2.859-0.067,4.884-0.202,6.073s-0.557,2.276-1.266,3.261s-1.667,1.74-2.874,2.268
			s-2.613,0.791-4.219,0.791c-1.523,0-2.892-0.249-4.104-0.747s-2.188-1.245-2.927-2.241s-1.178-2.08-1.318-3.252
			s-0.211-3.223-0.211-6.152v-4.869c0-2.859,0.067-4.884,0.202-6.073s0.557-2.276,1.266-3.261s1.667-1.74,2.874-2.268
			s2.613-0.791,4.219-0.791c1.523,0,2.892,0.249,4.104,0.747s2.188,1.245,2.927,2.241s1.178,2.08,1.318,3.252
			s0.211,3.223,0.211,6.152V167.205z M322.52,157.854c0-1.324-0.073-2.171-0.22-2.54s-0.448-0.554-0.905-0.554
			c-0.387,0-0.683,0.149-0.888,0.448s-0.308,1.181-0.308,2.646v13.289c0,1.652,0.067,2.672,0.202,3.059s0.448,0.58,0.94,0.58
			c0.504,0,0.826-0.223,0.967-0.668s0.211-1.506,0.211-3.182V157.854z"/>
		<path fill="#FFFFFF" d="M349.695,150.541V179h-7.4v-11.953h-2.215V179h-7.4v-28.459h7.4v10.178h2.215v-10.178H349.695z"/>
		<path fill="#FFFFFF" d="M355.988,157.238l1.477,9.545l-1.477,10.037h-4.166l1.477-10.037l-1.477-9.545H355.988z M362.422,157.238
			l1.494,9.545l-1.494,10.037h-4.166l1.494-10.037l-1.494-9.545H362.422z"/>
	</g>
	<g>
		<path fill="#FFFFFF" d="M21.302,204v-9.852H16.48V204h-2.93v-12.402h10.669V204H21.302z"/>
		<path fill="#FFFFFF" d="M38.599,197.579c0,1.14-0.161,2.124-0.482,2.954c-0.322,0.83-0.77,1.52-1.343,2.069
			c-0.574,0.549-1.251,0.956-2.033,1.221s-1.632,0.396-2.551,0.396c-0.31,0-0.619-0.021-0.928-0.062
			c-0.31-0.041-0.59-0.094-0.842-0.158v4.846h-2.979v-17.248h2.576l0.073,1.831c0.252-0.317,0.515-0.606,0.787-0.866
			c0.273-0.261,0.568-0.482,0.885-0.666c0.317-0.183,0.659-0.323,1.025-0.421s0.777-0.146,1.233-0.146
			c0.732,0,1.383,0.146,1.953,0.439c0.569,0.293,1.048,0.71,1.435,1.251c0.386,0.541,0.681,1.196,0.885,1.966
			C38.497,195.754,38.599,196.619,38.599,197.579z M35.474,197.701c0-0.684-0.049-1.266-0.146-1.746
			c-0.098-0.479-0.238-0.874-0.421-1.184c-0.183-0.309-0.407-0.535-0.671-0.678c-0.265-0.143-0.568-0.213-0.91-0.213
			c-0.505,0-0.987,0.203-1.447,0.609c-0.459,0.408-0.946,0.961-1.458,1.66v5.42c0.236,0.09,0.527,0.164,0.873,0.221
			c0.346,0.057,0.698,0.085,1.056,0.085c0.472,0,0.901-0.098,1.288-0.293c0.387-0.195,0.716-0.472,0.989-0.83
			c0.272-0.358,0.482-0.796,0.628-1.313S35.474,198.344,35.474,197.701z"/>
		<path fill="#FFFFFF" d="M52.356,197.701c0,0.977-0.139,1.869-0.415,2.68c-0.277,0.81-0.676,1.504-1.196,2.081
			c-0.521,0.578-1.16,1.025-1.917,1.343s-1.62,0.477-2.588,0.477c-0.92,0-1.742-0.135-2.466-0.403
			c-0.725-0.269-1.339-0.669-1.843-1.202c-0.505-0.533-0.891-1.201-1.16-2.002c-0.269-0.802-0.403-1.735-0.403-2.802
			c0-0.984,0.141-1.88,0.421-2.686c0.281-0.806,0.684-1.493,1.209-2.063c0.524-0.568,1.166-1.011,1.922-1.324
			c0.757-0.313,1.611-0.47,2.563-0.47c0.928,0,1.753,0.136,2.478,0.409c0.724,0.272,1.338,0.678,1.843,1.215
			c0.504,0.537,0.889,1.202,1.154,1.995C52.224,195.742,52.356,196.66,52.356,197.701z M49.256,197.774
			c0-1.286-0.242-2.252-0.727-2.899c-0.484-0.646-1.198-0.971-2.142-0.971c-0.521,0-0.964,0.103-1.331,0.306
			c-0.366,0.204-0.667,0.482-0.903,0.836c-0.236,0.354-0.409,0.768-0.519,1.239c-0.11,0.473-0.165,0.977-0.165,1.514
			c0,1.294,0.26,2.269,0.781,2.924c0.521,0.654,1.233,0.982,2.136,0.982c0.496,0,0.928-0.1,1.294-0.299s0.663-0.477,0.891-0.83
			c0.228-0.354,0.398-0.771,0.513-1.252C49.199,198.845,49.256,198.328,49.256,197.774z"/>
		<path fill="#FFFFFF" d="M62.513,204v-7.752h-0.024L57.593,204h-2.82v-12.402h2.93v7.752h0.024l4.883-7.752h2.832V204H62.513z"/>
		<path fill="#FFFFFF" d="M68.274,201.412c0.684,0.195,1.463,0.346,2.338,0.451c0.875,0.106,1.67,0.159,2.386,0.159
			c0.724,0,1.268-0.044,1.629-0.134c0.362-0.09,0.664-0.214,0.903-0.373c0.24-0.158,0.421-0.346,0.543-0.562
			s0.183-0.449,0.183-0.702c0-0.252-0.057-0.476-0.171-0.671c-0.114-0.195-0.301-0.362-0.562-0.501
			c-0.261-0.138-0.606-0.244-1.038-0.316c-0.432-0.074-0.957-0.11-1.575-0.11h-3.284v-2.124h3.113c0.74,0,1.28-0.043,1.617-0.128
			c0.338-0.086,0.608-0.202,0.812-0.349c0.203-0.146,0.348-0.314,0.433-0.506c0.086-0.191,0.128-0.396,0.128-0.617
			c0-0.211-0.045-0.402-0.134-0.573c-0.09-0.171-0.24-0.315-0.452-0.434c-0.212-0.118-0.511-0.209-0.897-0.274
			c-0.387-0.064-0.89-0.098-1.508-0.098c-0.554,0-1.202,0.041-1.947,0.122c-0.744,0.081-1.475,0.216-2.191,0.403v-2.332
			c0.684-0.113,1.414-0.211,2.191-0.293c0.777-0.081,1.544-0.122,2.301-0.122c1.978,0,3.424,0.276,4.339,0.83
			c0.916,0.554,1.374,1.359,1.374,2.417c0,0.285-0.047,0.57-0.14,0.854c-0.094,0.285-0.238,0.554-0.434,0.806
			s-0.441,0.477-0.738,0.672c-0.297,0.195-0.646,0.35-1.044,0.463c0.398,0.058,0.779,0.164,1.142,0.318
			c0.362,0.154,0.679,0.355,0.952,0.604c0.272,0.248,0.488,0.541,0.646,0.879c0.159,0.338,0.238,0.715,0.238,1.129
			c0,1.311-0.549,2.302-1.648,2.973c-1.099,0.672-2.759,1.008-4.98,1.008c-0.7,0-1.434-0.037-2.204-0.11
			c-0.769-0.073-1.548-0.179-2.337-0.317L68.274,201.412z"/>
		<path fill="#FFFFFF" d="M87.146,204.22c-0.83,0-1.65-0.03-2.46-0.092c-0.81-0.061-1.622-0.152-2.435-0.274V191.72
			c1.717-0.228,3.434-0.342,5.151-0.342c1.872,0,3.247,0.259,4.126,0.775s1.318,1.275,1.318,2.276c0,0.326-0.047,0.641-0.14,0.946
			c-0.094,0.305-0.238,0.586-0.434,0.842c-0.195,0.257-0.439,0.493-0.732,0.708c-0.293,0.216-0.643,0.389-1.05,0.52
			c0.407,0.049,0.789,0.146,1.147,0.293c0.358,0.146,0.673,0.338,0.946,0.573c0.272,0.236,0.488,0.522,0.646,0.86
			c0.159,0.338,0.238,0.715,0.238,1.129c0,1.336-0.539,2.322-1.617,2.961C90.774,203.9,89.205,204.22,87.146,204.22z
			 M89.771,194.979c0-0.455-0.2-0.799-0.598-1.031c-0.399-0.231-0.993-0.348-1.782-0.348c-0.497,0-0.908,0.006-1.233,0.019
			c-0.326,0.012-0.651,0.038-0.977,0.079v2.881h2.112c0.521,0,0.928-0.039,1.221-0.116s0.531-0.183,0.714-0.317
			c0.184-0.134,0.319-0.301,0.409-0.5C89.726,195.445,89.771,195.223,89.771,194.979z M87.525,201.974
			c0.919,0,1.611-0.154,2.075-0.464c0.464-0.309,0.696-0.729,0.696-1.258c0-0.504-0.22-0.896-0.659-1.178
			c-0.439-0.28-1.147-0.421-2.124-0.421h-2.332v3.149c0.391,0.065,0.769,0.109,1.135,0.135
			C86.683,201.961,87.085,201.974,87.525,201.974z"/>
		<path fill="#FFFFFF" d="M107.337,197.701c0,0.977-0.139,1.869-0.415,2.68c-0.277,0.81-0.676,1.504-1.196,2.081
			c-0.521,0.578-1.16,1.025-1.917,1.343s-1.62,0.477-2.588,0.477c-0.92,0-1.742-0.135-2.466-0.403
			c-0.725-0.269-1.339-0.669-1.843-1.202c-0.505-0.533-0.891-1.201-1.16-2.002c-0.269-0.802-0.403-1.735-0.403-2.802
			c0-0.984,0.141-1.88,0.421-2.686c0.281-0.806,0.684-1.493,1.209-2.063c0.524-0.568,1.166-1.011,1.922-1.324
			c0.757-0.313,1.611-0.47,2.563-0.47c0.928,0,1.753,0.136,2.478,0.409c0.724,0.272,1.338,0.678,1.843,1.215
			c0.504,0.537,0.889,1.202,1.154,1.995C107.205,195.742,107.337,196.66,107.337,197.701z M104.236,197.774
			c0-1.286-0.242-2.252-0.727-2.899c-0.484-0.646-1.198-0.971-2.142-0.971c-0.521,0-0.964,0.103-1.331,0.306
			c-0.366,0.204-0.667,0.482-0.903,0.836c-0.236,0.354-0.409,0.768-0.519,1.239c-0.11,0.473-0.165,0.977-0.165,1.514
			c0,1.294,0.26,2.269,0.781,2.924c0.521,0.654,1.233,0.982,2.136,0.982c0.496,0,0.928-0.1,1.294-0.299s0.663-0.477,0.891-0.83
			c0.228-0.354,0.398-0.771,0.513-1.252C104.179,198.845,104.236,198.328,104.236,197.774z"/>
		<path fill="#FFFFFF" d="M121.741,201.498l-0.146,5.627h-2.759V204h-7.52v3.125h-2.747l-0.159-5.627h0.305
			c0.309,0,0.596-0.045,0.861-0.135c0.264-0.09,0.51-0.26,0.738-0.513c0.228-0.252,0.431-0.606,0.61-1.062
			c0.179-0.456,0.342-1.051,0.488-1.783s0.271-1.623,0.372-2.673c0.102-1.05,0.185-2.295,0.25-3.735h8.398v9.9H121.741z
			 M117.518,194.1h-2.771c-0.082,1.074-0.163,2.017-0.244,2.826c-0.082,0.811-0.188,1.51-0.317,2.1
			c-0.13,0.59-0.301,1.087-0.513,1.489c-0.212,0.403-0.415,0.731-0.61,0.983h4.456V194.1z"/>
		<path fill="#FFFFFF" d="M133.692,203.523c-0.586,0.236-1.192,0.412-1.819,0.525c-0.627,0.113-1.282,0.171-1.965,0.171
			c-0.985,0-1.868-0.134-2.649-0.403c-0.781-0.268-1.445-0.666-1.99-1.195c-0.545-0.529-0.962-1.185-1.251-1.966
			c-0.289-0.781-0.433-1.685-0.433-2.71c0-0.992,0.157-1.893,0.47-2.697c0.313-0.807,0.754-1.494,1.324-2.063
			c0.569-0.569,1.255-1.009,2.057-1.318c0.802-0.31,1.695-0.464,2.68-0.464c0.806,0,1.483,0.043,2.032,0.128
			c0.55,0.086,1.044,0.194,1.483,0.323v2.894c-0.505-0.252-1.052-0.447-1.642-0.586c-0.59-0.138-1.15-0.208-1.679-0.208
			c-0.554,0-1.05,0.094-1.489,0.281s-0.81,0.447-1.111,0.781c-0.301,0.334-0.531,0.738-0.69,1.215
			c-0.158,0.476-0.238,0.999-0.238,1.568c0,0.594,0.085,1.127,0.256,1.6c0.171,0.472,0.413,0.872,0.727,1.202
			c0.313,0.329,0.689,0.581,1.129,0.757c0.439,0.175,0.928,0.262,1.465,0.262c0.26,0,0.535-0.018,0.824-0.055
			c0.289-0.036,0.578-0.09,0.866-0.158c0.289-0.069,0.574-0.148,0.854-0.238c0.281-0.09,0.543-0.188,0.788-0.293V203.523z"/>
		<path fill="#FFFFFF" d="M144.092,194.1v9.9h-3.027v-9.9h-4.321v-2.502h11.67v2.502H144.092z"/>
		<path fill="#FFFFFF" d="M155.872,204.22c-0.83,0-1.65-0.03-2.46-0.092c-0.81-0.061-1.622-0.152-2.435-0.274V191.72
			c1.717-0.228,3.434-0.342,5.151-0.342c1.872,0,3.247,0.259,4.126,0.775s1.318,1.275,1.318,2.276c0,0.326-0.047,0.641-0.14,0.946
			c-0.094,0.305-0.238,0.586-0.434,0.842c-0.195,0.257-0.439,0.493-0.732,0.708c-0.293,0.216-0.643,0.389-1.05,0.52
			c0.407,0.049,0.789,0.146,1.147,0.293c0.358,0.146,0.673,0.338,0.946,0.573c0.272,0.236,0.488,0.522,0.646,0.86
			c0.159,0.338,0.238,0.715,0.238,1.129c0,1.336-0.539,2.322-1.617,2.961C159.5,203.9,157.931,204.22,155.872,204.22z
			 M158.497,194.979c0-0.455-0.2-0.799-0.598-1.031c-0.399-0.231-0.993-0.348-1.782-0.348c-0.497,0-0.908,0.006-1.233,0.019
			c-0.326,0.012-0.651,0.038-0.977,0.079v2.881h2.112c0.521,0,0.928-0.039,1.221-0.116s0.531-0.183,0.714-0.317
			c0.184-0.134,0.319-0.301,0.409-0.5C158.452,195.445,158.497,195.223,158.497,194.979z M156.25,201.974
			c0.919,0,1.611-0.154,2.075-0.464c0.464-0.309,0.696-0.729,0.696-1.258c0-0.504-0.22-0.896-0.659-1.178
			c-0.439-0.28-1.147-0.421-2.124-0.421h-2.332v3.149c0.391,0.065,0.769,0.109,1.135,0.135
			C155.408,201.961,155.811,201.974,156.25,201.974z"/>
		<path fill="#FFFFFF" d="M175.696,196.847c0,0.204-0.006,0.468-0.019,0.794c-0.012,0.325-0.03,0.631-0.055,0.915h-8.154
			c0,0.546,0.083,1.025,0.25,1.44s0.403,0.763,0.708,1.044c0.306,0.28,0.672,0.494,1.099,0.641c0.428,0.146,0.901,0.22,1.423,0.22
			c0.602,0,1.246-0.047,1.935-0.141c0.688-0.094,1.401-0.246,2.142-0.457v2.367c-0.316,0.09-0.663,0.172-1.037,0.244
			c-0.374,0.074-0.757,0.139-1.147,0.195s-0.785,0.1-1.185,0.129c-0.398,0.028-0.785,0.043-1.159,0.043
			c-0.944,0-1.79-0.135-2.539-0.403s-1.384-0.665-1.904-1.19c-0.521-0.524-0.92-1.174-1.196-1.947
			c-0.277-0.772-0.415-1.668-0.415-2.686c0-1.008,0.138-1.926,0.415-2.752c0.276-0.826,0.667-1.534,1.172-2.124
			c0.505-0.591,1.117-1.046,1.837-1.367c0.721-0.321,1.524-0.482,2.411-0.482c0.879,0,1.656,0.136,2.332,0.409
			c0.675,0.272,1.24,0.652,1.696,1.141s0.802,1.07,1.038,1.746C175.578,195.301,175.696,196.041,175.696,196.847z M172.669,196.42
			c0.008-0.488-0.053-0.914-0.184-1.276c-0.13-0.362-0.307-0.661-0.53-0.897c-0.225-0.235-0.484-0.41-0.781-0.524
			c-0.298-0.114-0.616-0.171-0.958-0.171c-0.749,0-1.363,0.25-1.844,0.751c-0.48,0.5-0.765,1.206-0.854,2.118H172.669z"/>
		<path fill="#FFFFFF" d="M186.243,204v-5.225h-4.821V204h-2.93v-12.402h2.93v4.65h4.821v-4.65h2.917V204H186.243z"/>
		<path fill="#FFFFFF" d="M199.988,204v-5.225h-4.821V204h-2.93v-12.402h2.93v4.65h4.821v-4.65h2.917V204H199.988z"/>
		<path fill="#FFFFFF" d="M213.904,204l-0.073-1.623c-0.261,0.276-0.533,0.53-0.817,0.763c-0.285,0.231-0.599,0.433-0.94,0.604
			c-0.342,0.17-0.714,0.303-1.117,0.396c-0.402,0.094-0.844,0.141-1.324,0.141c-0.635,0-1.192-0.094-1.673-0.281
			c-0.479-0.188-0.883-0.447-1.208-0.781s-0.572-0.736-0.738-1.209c-0.167-0.471-0.251-0.992-0.251-1.563
			c0-0.586,0.124-1.127,0.373-1.623c0.248-0.496,0.626-0.924,1.135-1.281c0.509-0.358,1.144-0.639,1.904-0.843
			c0.761-0.203,1.654-0.306,2.68-0.306h1.623v-0.744c0-0.317-0.044-0.604-0.134-0.86c-0.09-0.257-0.234-0.474-0.434-0.653
			c-0.199-0.179-0.458-0.317-0.774-0.415c-0.318-0.098-0.709-0.146-1.172-0.146c-0.732,0-1.455,0.083-2.167,0.25
			c-0.713,0.167-1.402,0.401-2.069,0.702v-2.381c0.594-0.235,1.279-0.431,2.057-0.586c0.777-0.154,1.585-0.231,2.424-0.231
			c0.919,0,1.709,0.087,2.367,0.263c0.66,0.175,1.203,0.438,1.63,0.787c0.428,0.35,0.743,0.787,0.946,1.313
			c0.203,0.524,0.305,1.137,0.305,1.837V204H213.904z M213.477,198.52h-1.818c-0.505,0-0.932,0.049-1.281,0.146
			c-0.351,0.098-0.635,0.231-0.855,0.402c-0.219,0.171-0.38,0.368-0.481,0.592c-0.103,0.225-0.153,0.463-0.153,0.715
			c0,0.504,0.163,0.889,0.488,1.153c0.326,0.265,0.77,0.396,1.331,0.396c0.415,0,0.847-0.15,1.294-0.452
			c0.447-0.301,0.939-0.732,1.477-1.293V198.52z"/>
		<path fill="#FFFFFF" d="M220.63,200.473c0.253-0.578,0.558-1,0.916-1.264c0.358-0.265,0.729-0.434,1.111-0.507
			c-0.407-0.065-0.78-0.185-1.117-0.36c-0.338-0.175-0.629-0.4-0.873-0.678c-0.244-0.275-0.434-0.594-0.567-0.951
			c-0.135-0.358-0.202-0.753-0.202-1.185c0-0.74,0.133-1.373,0.397-1.898c0.264-0.524,0.657-0.952,1.178-1.281
			c0.521-0.33,1.17-0.569,1.947-0.721c0.776-0.15,1.679-0.226,2.704-0.226c0.716,0,1.428,0.017,2.136,0.049
			c0.708,0.033,1.412,0.082,2.112,0.146V204h-2.918v-4.553h-1.172c-0.358,0-0.678,0.028-0.958,0.085
			c-0.281,0.058-0.537,0.146-0.77,0.269c-0.231,0.122-0.436,0.293-0.61,0.513s-0.307,0.464-0.396,0.732L222.474,204h-3.345
			L220.63,200.473z M223.048,195.479c0,0.351,0.066,0.64,0.201,0.866c0.134,0.229,0.331,0.412,0.592,0.55
			c0.261,0.139,0.582,0.236,0.965,0.293c0.382,0.058,0.821,0.085,1.318,0.085h1.33v-3.601c-0.236-0.024-0.479-0.038-0.727-0.043
			c-0.248-0.004-0.515-0.006-0.799-0.006c-1.156,0-1.925,0.155-2.308,0.464C223.238,194.397,223.048,194.861,223.048,195.479z"/>
		<path fill="#FFFFFF" d="M255.091,204l-4.663-6.201V204h-2.93v-12.402h2.93v5.249l4.395-5.249h3.675l-5.029,5.652l5.443,6.75
			H255.091z"/>
		<path fill="#FFFFFF" d="M272.278,197.701c0,0.977-0.139,1.869-0.415,2.68c-0.276,0.81-0.676,1.504-1.196,2.081
			c-0.521,0.578-1.159,1.025-1.917,1.343c-0.756,0.317-1.619,0.477-2.588,0.477c-0.919,0-1.741-0.135-2.465-0.403
			c-0.725-0.269-1.339-0.669-1.844-1.202s-0.891-1.201-1.16-2.002c-0.268-0.802-0.402-1.735-0.402-2.802
			c0-0.984,0.141-1.88,0.421-2.686c0.281-0.806,0.684-1.493,1.209-2.063c0.524-0.568,1.165-1.011,1.923-1.324
			c0.756-0.313,1.611-0.47,2.563-0.47c0.928,0,1.754,0.136,2.479,0.409c0.725,0.272,1.339,0.678,1.844,1.215
			c0.504,0.537,0.889,1.202,1.153,1.995C272.146,195.742,272.278,196.66,272.278,197.701z M269.178,197.774
			c0-1.286-0.242-2.252-0.727-2.899c-0.484-0.646-1.198-0.971-2.143-0.971c-0.521,0-0.964,0.103-1.33,0.306
			c-0.366,0.204-0.667,0.482-0.903,0.836c-0.236,0.354-0.409,0.768-0.519,1.239c-0.11,0.473-0.165,0.977-0.165,1.514
			c0,1.294,0.261,2.269,0.781,2.924c0.521,0.654,1.233,0.982,2.136,0.982c0.497,0,0.928-0.1,1.295-0.299
			c0.365-0.199,0.663-0.477,0.891-0.83c0.228-0.354,0.398-0.771,0.513-1.252C269.121,198.845,269.178,198.328,269.178,197.774z"/>
		<path fill="#FFFFFF" d="M283.704,204l-0.293-6.531l-0.109-3.015l-0.77,2.075l-1.77,4.565h-1.881l-1.599-4.565l-0.671-2.075
			l-0.086,2.966l-0.269,6.58h-2.552l0.781-12.402h3.395l1.403,3.857l0.671,2.148l0.672-2.051l1.477-3.955h3.455L286.353,204H283.704
			z"/>
		<path fill="#FFFFFF" d="M296.204,204v-9.852h-4.821V204h-2.93v-12.402h10.668V204H296.204z"/>
		<path fill="#FFFFFF" d="M310.12,204l-0.073-1.623c-0.261,0.276-0.533,0.53-0.817,0.763c-0.285,0.231-0.599,0.433-0.94,0.604
			c-0.342,0.17-0.714,0.303-1.117,0.396c-0.402,0.094-0.844,0.141-1.324,0.141c-0.635,0-1.192-0.094-1.673-0.281
			c-0.479-0.188-0.883-0.447-1.208-0.781s-0.572-0.736-0.738-1.209c-0.167-0.471-0.251-0.992-0.251-1.563
			c0-0.586,0.124-1.127,0.373-1.623c0.248-0.496,0.626-0.924,1.135-1.281c0.509-0.358,1.144-0.639,1.904-0.843
			c0.761-0.203,1.654-0.306,2.68-0.306h1.623v-0.744c0-0.317-0.044-0.604-0.134-0.86c-0.09-0.257-0.234-0.474-0.434-0.653
			c-0.199-0.179-0.458-0.317-0.774-0.415c-0.318-0.098-0.709-0.146-1.172-0.146c-0.732,0-1.455,0.083-2.167,0.25
			c-0.713,0.167-1.402,0.401-2.069,0.702v-2.381c0.594-0.235,1.279-0.431,2.057-0.586c0.777-0.154,1.585-0.231,2.424-0.231
			c0.919,0,1.709,0.087,2.367,0.263c0.66,0.175,1.203,0.438,1.63,0.787c0.428,0.35,0.743,0.787,0.946,1.313
			c0.203,0.524,0.305,1.137,0.305,1.837V204H310.12z M309.692,198.52h-1.818c-0.505,0-0.932,0.049-1.281,0.146
			c-0.351,0.098-0.635,0.231-0.855,0.402c-0.219,0.171-0.38,0.368-0.481,0.592c-0.103,0.225-0.153,0.463-0.153,0.715
			c0,0.504,0.163,0.889,0.488,1.153c0.326,0.265,0.77,0.396,1.331,0.396c0.415,0,0.847-0.15,1.294-0.452
			c0.447-0.301,0.939-0.732,1.477-1.293V198.52z"/>
		<path fill="#FFFFFF" d="M323.694,204v-5.225h-4.821V204h-2.93v-12.402h2.93v4.65h4.821v-4.65h2.917V204H323.694z"/>
		<path fill="#FFFFFF" d="M337.415,204v-7.752h-0.024L332.495,204h-2.819v-12.402h2.93v7.752h0.024l4.883-7.752h2.832V204H337.415z"
			/>
		<path fill="#FFFFFF" d="M344.336,200.473c0.253-0.578,0.558-1,0.916-1.264c0.358-0.265,0.729-0.434,1.111-0.507
			c-0.407-0.065-0.78-0.185-1.117-0.36c-0.338-0.175-0.629-0.4-0.873-0.678c-0.244-0.275-0.434-0.594-0.567-0.951
			c-0.135-0.358-0.202-0.753-0.202-1.185c0-0.74,0.133-1.373,0.397-1.898c0.264-0.524,0.657-0.952,1.178-1.281
			c0.521-0.33,1.17-0.569,1.947-0.721c0.776-0.15,1.679-0.226,2.704-0.226c0.716,0,1.428,0.017,2.136,0.049
			c0.708,0.033,1.412,0.082,2.112,0.146V204h-2.918v-4.553h-1.172c-0.358,0-0.678,0.028-0.958,0.085
			c-0.281,0.058-0.537,0.146-0.77,0.269c-0.231,0.122-0.436,0.293-0.61,0.513s-0.307,0.464-0.396,0.732L346.18,204h-3.345
			L344.336,200.473z M346.754,195.479c0,0.351,0.066,0.64,0.201,0.866c0.134,0.229,0.331,0.412,0.592,0.55
			c0.261,0.139,0.582,0.236,0.965,0.293c0.382,0.058,0.821,0.085,1.318,0.085h1.33v-3.601c-0.236-0.024-0.479-0.038-0.727-0.043
			c-0.248-0.004-0.515-0.006-0.799-0.006c-1.156,0-1.925,0.155-2.308,0.464C346.944,194.397,346.754,194.861,346.754,195.479z"/>
	</g>
</g>
</svg>
