<?xml version="1.0" encoding="utf-8"?>
<!-- Generator: Adobe Illustrator 16.0.0, SVG Export Plug-In . SVG Version: 6.00 Build 0)  -->
<!DOCTYPE svg PUBLIC "-//W3C//DTD SVG 1.1//EN" "http://www.w3.org/Graphics/SVG/1.1/DTD/svg11.dtd">
<svg version="1.1" id="Layer_1" xmlns="http://www.w3.org/2000/svg" xmlns:xlink="http://www.w3.org/1999/xlink" x="0px" y="0px"
	 width="400px" height="350px" viewBox="0 0 400 350" enable-background="new 0 0 400 350" xml:space="preserve">
<g>
	<path fill-rule="evenodd" clip-rule="evenodd" fill="#F16624" d="M338.297,236.484c0-0.161,0.006-0.32,0.006-0.481
		c0-83.679-61.98-151.515-138.432-151.515c-76.454,0-138.431,67.836-138.431,151.515c0,0.161,0.006,0.32,0.006,0.481H338.297
		L338.297,236.484z"/>
	<path fill-rule="evenodd" clip-rule="evenodd" fill="#F89520" d="M313.609,236.484c0-0.13,0.004-0.263,0.004-0.396
		c0-68.755-50.924-124.492-113.742-124.492c-62.819,0-113.743,55.737-113.743,124.492c0,0.133,0.004,0.266,0.004,0.396H313.609
		L313.609,236.484z"/>
	<polygon fill-rule="evenodd" clip-rule="evenodd" fill="#442162" points="102.595,216.821 158.357,212.583 158.357,195.549 
		102.595,206.206 102.595,216.821 	"/>
	<polygon fill-rule="evenodd" clip-rule="evenodd" fill="#442162" points="164.383,212.124 233.363,206.881 233.363,181.216 
		164.383,194.397 164.383,212.124 	"/>
	<path fill-rule="evenodd" clip-rule="evenodd" fill="#442162" d="M331.141,91.264c0-0.052-0.014-0.103-0.021-0.155
		c-0.426-19.208-14.775-34.637-32.428-34.637c-6.873,0-13.244,2.345-18.488,6.334c-7.197-10.282-18.527-16.922-31.277-16.922
		c-17.781,0-32.801,12.894-37.697,30.602c-6.74,1.04-12.811,4.348-17.556,9.192c-3.563-3.13-8.081-5.012-13.005-5.012
		c-11.492,0-20.807,10.196-20.807,22.773c0,12.579,9.314,22.772,20.807,22.772c1.808,0,3.554-0.277,5.227-0.753
		c4.924,12.75,16.459,21.697,29.901,21.697c0.092,0,0.18-0.008,0.277-0.01l-21.504,11.992l-30.185-9.9l-44.438,25.355l-17.38-6.053
		l-42.25,25.633v42.313h279.113L331.141,91.264L331.141,91.264z M246.463,227.413l-183.384,6.049v-37.581l39.486-21.362v12.218
		l61.819-29.201v20.566l82.08-37.32V227.413L246.463,227.413z M304.264,146.714l-51.795-14.8
		c9.773-0.957,18.516-5.817,24.926-13.151c5.699,5.436,13.143,8.735,21.297,8.735c2.234,0,4.416-0.248,6.521-0.718L304.264,146.714
		L304.264,146.714z M319.021,150.751l-11.072-3.326l1.646-52.882c0-3.188,4.375-3.762,9.426-3.762V150.751L319.021,150.751z
		 M324.482,87.086c-0.357-0.07-0.727-0.133-1.104-0.188c-0.086-0.013-0.176-0.025-0.264-0.038c-0.328-0.045-0.66-0.085-0.996-0.119
		c-0.119-0.011-0.238-0.024-0.355-0.036c-0.328-0.03-0.66-0.052-0.996-0.07c-0.125-0.007-0.244-0.017-0.369-0.022
		c-0.451-0.02-0.91-0.032-1.377-0.032c-0.402,0-0.797,0.009-1.188,0.024c-0.139,0.005-0.27,0.014-0.406,0.021
		c-0.248,0.013-0.5,0.025-0.746,0.044c-0.162,0.012-0.32,0.029-0.477,0.043c-0.213,0.02-0.428,0.039-0.635,0.063
		c-0.172,0.02-0.336,0.042-0.504,0.065c-0.188,0.024-0.377,0.05-0.559,0.078c-0.178,0.027-0.354,0.058-0.525,0.089
		c-0.16,0.029-0.322,0.058-0.48,0.089c-0.184,0.036-0.363,0.076-0.539,0.114c-0.137,0.031-0.273,0.062-0.406,0.096
		c-0.188,0.045-0.375,0.093-0.553,0.143c-0.109,0.029-0.215,0.061-0.32,0.092c-0.193,0.058-0.385,0.115-0.57,0.178
		c-0.076,0.025-0.146,0.052-0.223,0.077c-0.205,0.073-0.402,0.144-0.596,0.221c-0.031,0.012-0.059,0.025-0.09,0.04
		c-1.678,0.688-2.814,1.57-3.172,2.553c-1.377-2.414-2.184-5.261-2.184-8.321h-2.09c0,4.5,1.52,8.601,4.01,11.758l-1.34,28.201
		c-2.613,0.886-5.391,1.363-8.27,1.363c-6.824,0-13.066-2.692-17.918-7.145c1.824-2.417,3.416-5.047,4.732-7.862l-5.225-2.623
		c-1.256,2.881-2.834,5.558-4.686,7.982c-6.354,8.332-15.91,13.638-26.602,13.638c-2.6,0-5.125-0.331-7.559-0.925
		c-2.699-0.661-5.277-1.666-7.697-2.968l-1.904,3.269c2.258,1.332,4.656,2.415,7.156,3.247
		c-5.141,7.695-13.443,12.696-22.818,12.696c-11.58,0-21.514-7.635-25.876-18.545c2.019-0.943,3.872-2.212,5.509-3.767l-2.047-2.382
		c-1.596,1.635-3.462,2.944-5.522,3.849c-2.042,0.905-4.267,1.419-6.604,1.419c-9.807,0-17.753-8.701-17.753-19.433
		s7.946-19.433,17.753-19.433c5.387,0,10.204,2.638,13.461,6.785c4.983-6.108,12.147-10.029,20.157-10.312
		c3.555-16.808,17.309-29.341,33.746-29.341c12.986,0,24.295,7.826,30.229,19.397c5.033-5.361,11.898-8.667,19.469-8.667
		c13.564,0,24.861,10.58,27.395,24.608C324.529,87.094,324.506,87.091,324.482,87.086L324.482,87.086z"/>
	<polygon fill-rule="evenodd" clip-rule="evenodd" fill="#442162" points="67.889,219.459 99.004,217.094 99.004,206.891 
		67.889,212.838 67.889,219.459 	"/>
	<path fill-rule="evenodd" clip-rule="evenodd" fill="#FFFFFF" d="M164.383,157.535l-61.819,29.201v-12.218l-39.486,21.362v37.581
		l183.384-6.049v-86.631l-82.08,37.32V157.535L164.383,157.535z M99.004,217.094l-31.115,2.365v-6.621l31.115-5.947V217.094
		L99.004,217.094z M158.357,212.583l-55.762,4.238v-10.615l55.762-10.657V212.583L158.357,212.583z M233.363,181.216v25.665
		l-68.98,5.243v-17.727L233.363,181.216L233.363,181.216z"/>
	<path fill-rule="evenodd" clip-rule="evenodd" fill="#FFFFFF" d="M297.16,62.491c-7.57,0-14.436,3.307-19.469,8.667
		c-5.934-11.571-17.242-19.397-30.229-19.397c-16.438,0-30.191,12.534-33.746,29.341c-8.01,0.282-15.174,4.204-20.157,10.312
		c-3.257-4.147-8.074-6.785-13.461-6.785c-9.807,0-17.753,8.701-17.753,19.433s7.946,19.433,17.753,19.433
		c2.338,0,4.563-0.515,6.604-1.419c2.061-0.904,3.927-2.214,5.522-3.849l2.047,2.382c-1.637,1.554-3.491,2.823-5.509,3.767
		c4.362,10.911,14.296,18.545,25.876,18.545c9.375,0,17.678-5.001,22.818-12.696c-2.5-0.832-4.898-1.915-7.156-3.247l1.904-3.269
		c2.42,1.302,4.998,2.307,7.697,2.968c2.434,0.595,4.959,0.925,7.559,0.925c10.691,0,20.248-5.306,26.602-13.638
		c1.852-2.424,3.43-5.102,4.686-7.982l5.225,2.623c-1.316,2.814-2.908,5.444-4.732,7.862c4.852,4.452,11.094,7.145,17.918,7.145
		c2.881,0,5.656-0.477,8.27-1.363l1.34-28.2c-2.49-3.157-4.01-7.258-4.01-11.759h2.09c0,3.06,0.807,5.908,2.184,8.321
		c0.824-2.276,5.869-4.03,11.988-4.03c1.994,0,3.871,0.189,5.533,0.518C322.021,73.07,310.725,62.491,297.16,62.491L297.16,62.491z"
		/>
	<path fill-rule="evenodd" clip-rule="evenodd" fill="#FFFFFF" d="M309.596,94.542l-1.646,52.882l11.072,3.326V90.78
		C313.971,90.78,309.596,91.355,309.596,94.542L309.596,94.542z"/>
	<g>
		<path fill="#FFFFFF" d="M37.387,263.205c0,2.859-0.067,4.884-0.202,6.073s-0.557,2.276-1.266,3.261s-1.667,1.74-2.874,2.268
			s-2.613,0.791-4.219,0.791c-1.523,0-2.892-0.249-4.104-0.747s-2.188-1.245-2.927-2.241s-1.178-2.08-1.318-3.252
			s-0.211-3.223-0.211-6.152v-4.869c0-2.859,0.067-4.884,0.202-6.073s0.557-2.276,1.266-3.261s1.667-1.74,2.874-2.268
			s2.613-0.791,4.219-0.791c1.523,0,2.892,0.249,4.104,0.747s2.188,1.245,2.927,2.241s1.178,2.08,1.318,3.252
			s0.211,3.223,0.211,6.152V263.205z M29.986,253.854c0-1.324-0.073-2.171-0.22-2.54s-0.448-0.554-0.905-0.554
			c-0.387,0-0.683,0.149-0.888,0.448s-0.308,1.181-0.308,2.646v13.289c0,1.652,0.067,2.672,0.202,3.059s0.448,0.58,0.94,0.58
			c0.504,0,0.826-0.223,0.967-0.668s0.211-1.506,0.211-3.182V253.854z"/>
		<path fill="#FFFFFF" d="M57.057,263.205c0,2.859-0.067,4.884-0.202,6.073s-0.557,2.276-1.266,3.261s-1.667,1.74-2.874,2.268
			s-2.613,0.791-4.219,0.791c-1.523,0-2.892-0.249-4.104-0.747s-2.188-1.245-2.927-2.241s-1.178-2.08-1.318-3.252
			s-0.211-3.223-0.211-6.152v-4.869c0-2.859,0.067-4.884,0.202-6.073s0.557-2.276,1.266-3.261s1.667-1.74,2.874-2.268
			s2.613-0.791,4.219-0.791c1.523,0,2.892,0.249,4.104,0.747s2.188,1.245,2.927,2.241s1.178,2.08,1.318,3.252
			s0.211,3.223,0.211,6.152V263.205z M49.656,253.854c0-1.324-0.073-2.171-0.22-2.54s-0.448-0.554-0.905-0.554
			c-0.387,0-0.683,0.149-0.888,0.448s-0.308,1.181-0.308,2.646v13.289c0,1.652,0.067,2.672,0.202,3.059s0.448,0.58,0.94,0.58
			c0.504,0,0.826-0.223,0.967-0.668s0.211-1.506,0.211-3.182V253.854z"/>
		<path fill="#FFFFFF" d="M76.727,263.205c0,2.859-0.067,4.884-0.202,6.073s-0.557,2.276-1.266,3.261s-1.667,1.74-2.874,2.268
			s-2.613,0.791-4.219,0.791c-1.523,0-2.892-0.249-4.104-0.747s-2.188-1.245-2.927-2.241s-1.178-2.08-1.318-3.252
			s-0.211-3.223-0.211-6.152v-4.869c0-2.859,0.067-4.884,0.202-6.073s0.557-2.276,1.266-3.261s1.667-1.74,2.874-2.268
			s2.613-0.791,4.219-0.791c1.523,0,2.892,0.249,4.104,0.747s2.188,1.245,2.927,2.241s1.178,2.08,1.318,3.252
			s0.211,3.223,0.211,6.152V263.205z M69.326,253.854c0-1.324-0.073-2.171-0.22-2.54s-0.448-0.554-0.905-0.554
			c-0.387,0-0.683,0.149-0.888,0.448s-0.308,1.181-0.308,2.646v13.289c0,1.652,0.067,2.672,0.202,3.059s0.448,0.58,0.94,0.58
			c0.504,0,0.826-0.223,0.967-0.668s0.211-1.506,0.211-3.182V253.854z"/>
		<path fill="#FFFFFF" d="M86.465,253.238h4.166l-1.477,9.545l1.477,10.037h-4.166l-1.477-10.037L86.465,253.238z M92.916,253.238
			h4.166l-1.494,9.545l1.494,10.037h-4.166l-1.494-10.037L92.916,253.238z"/>
		<path fill="#FFFFFF" d="M116.207,246.541V275h-7.4v-11.953h-2.215V275h-7.4v-28.459h7.4v10.178h2.215v-10.178H116.207z"/>
		<path fill="#FFFFFF" d="M119.178,246.541h12.34v5.695h-4.939v5.396h4.623v5.414h-4.623v6.258h5.432V275h-12.832V246.541z"/>
		<path fill="#FFFFFF" d="M134.137,246.541h7.383c2.332,0,4.099,0.182,5.3,0.545s2.171,1.098,2.909,2.204s1.107,2.89,1.107,5.349
			c0,1.664-0.261,2.822-0.782,3.479s-1.55,1.16-3.085,1.511c1.711,0.388,2.871,1.028,3.48,1.926s0.914,2.272,0.914,4.124v2.639
			c0,1.924-0.22,3.348-0.659,4.273c-0.439,0.927-1.14,1.561-2.101,1.9s-2.93,0.51-5.906,0.51h-8.561V246.541z M141.537,251.41v6.328
			c0.316-0.012,0.563-0.018,0.738-0.018c0.727,0,1.189-0.179,1.389-0.536s0.299-1.38,0.299-3.067c0-0.891-0.082-1.515-0.246-1.872
			s-0.378-0.583-0.642-0.677S142.299,251.422,141.537,251.41z M141.537,262.168v7.963c1.043-0.035,1.708-0.199,1.995-0.492
			s0.431-1.014,0.431-2.162v-2.654c0-1.219-0.129-1.957-0.387-2.215S142.639,262.203,141.537,262.168z"/>
		<path fill="#FFFFFF" d="M166.81,246.541L171.042,275h-7.563l-0.397-5.115h-2.647L159.99,275h-7.651l3.775-28.459H166.81z
			 M162.888,264.84c-0.375-3.224-0.75-7.207-1.127-11.953c-0.754,5.449-1.228,9.434-1.42,11.953H162.888z"/>
		<path fill="#FFFFFF" d="M180.789,260.885v4.904h-9.334v-4.904H180.789z"/>
		<path fill="#FFFFFF" d="M195.691,246.541L199.923,275h-7.563l-0.397-5.115h-2.647L188.871,275h-7.651l3.775-28.459H195.691z
			 M191.769,264.84c-0.375-3.224-0.75-7.207-1.127-11.953c-0.754,5.449-1.228,9.434-1.42,11.953H191.769z"/>
		<path fill="#FFFFFF" d="M216.086,246.541v5.695h-4.395V275h-7.4v-22.764h-4.377v-5.695H216.086z"/>
		<path fill="#FFFFFF" d="M232.68,246.541v5.695h-4.395V275h-7.4v-22.764h-4.377v-5.695H232.68z"/>
		<path fill="#FFFFFF" d="M234.367,246.541h7.453c2.016,0,3.565,0.158,4.649,0.475s1.898,0.773,2.443,1.371s0.914,1.321,1.107,2.171
			s0.29,2.165,0.29,3.946v2.479c0,1.816-0.188,3.141-0.563,3.973s-1.063,1.471-2.065,1.916s-2.312,0.668-3.929,0.668h-1.986V275
			h-7.4V246.541z M241.768,251.41v7.242c0.211,0.012,0.393,0.018,0.545,0.018c0.68,0,1.151-0.167,1.415-0.501
			s0.396-1.028,0.396-2.083v-2.338c0-0.973-0.152-1.605-0.457-1.898S242.729,251.41,241.768,251.41z"/>
		<path fill="#FFFFFF" d="M265.23,246.541L269.462,275h-7.563l-0.396-5.115h-2.647L258.41,275h-7.651l3.774-28.459H265.23z
			 M261.308,264.84c-0.374-3.224-0.75-7.207-1.127-11.953c-0.754,5.449-1.228,9.434-1.42,11.953H261.308z"/>
		<path fill="#FFFFFF" d="M270.719,246.523h7.418l0.035,12.023c1.395-0.035,2.115-0.809,2.162-2.32l0.141-5.555
			c0.047-2.051,0.445-3.434,1.195-4.148h6.838c-0.668,0.691-0.996,2.121-0.984,4.289l0.035,4.887
			c0.023,2.953-1.641,4.635-4.992,5.045c3.352,0.41,5.016,2.115,4.992,5.115l-0.035,4.535c-0.012,2.156,0.316,3.691,0.984,4.605
			h-6.838c-0.797-0.715-1.195-2.098-1.195-4.148v-5.555c0-0.703-0.214-1.269-0.642-1.696s-0.981-0.647-1.661-0.659L278.137,275
			h-7.418V246.523z"/>
		<path fill="#FFFFFF" d="M308.564,279.904h-5.115V275h-13.43v-28.477h7.418v22.781h2.197v-22.781h7.418v22.781h1.512V279.904z"/>
		<path fill="#FFFFFF" d="M327.057,275h-6.188v-12.955L317.02,275h-6.486v-28.477h6.188v12.85l4.148-12.85h6.188V275z"/>
		<path fill="#FFFFFF" d="M346.92,263.205c0,2.859-0.067,4.884-0.202,6.073s-0.557,2.276-1.266,3.261s-1.667,1.74-2.874,2.268
			s-2.613,0.791-4.219,0.791c-1.523,0-2.892-0.249-4.104-0.747s-2.188-1.245-2.927-2.241s-1.178-2.08-1.318-3.252
			s-0.211-3.223-0.211-6.152v-4.869c0-2.859,0.067-4.884,0.202-6.073s0.557-2.276,1.266-3.261s1.667-1.74,2.874-2.268
			s2.613-0.791,4.219-0.791c1.523,0,2.892,0.249,4.104,0.747s2.188,1.245,2.927,2.241s1.178,2.08,1.318,3.252
			s0.211,3.223,0.211,6.152V263.205z M339.52,253.854c0-1.324-0.073-2.171-0.22-2.54s-0.448-0.554-0.905-0.554
			c-0.387,0-0.683,0.149-0.888,0.448s-0.308,1.181-0.308,2.646v13.289c0,1.652,0.067,2.672,0.202,3.059s0.448,0.58,0.94,0.58
			c0.504,0,0.826-0.223,0.967-0.668s0.211-1.506,0.211-3.182V253.854z"/>
		<path fill="#FFFFFF" d="M366.695,246.541V275h-7.4v-11.953h-2.215V275h-7.4v-28.459h7.4v10.178h2.215v-10.178H366.695z"/>
		<path fill="#FFFFFF" d="M372.988,253.238l1.477,9.545l-1.477,10.037h-4.166l1.477-10.037l-1.477-9.545H372.988z M379.422,253.238
			l1.494,9.545l-1.494,10.037h-4.166l1.494-10.037l-1.494-9.545H379.422z"/>
	</g>
	<g>
		<path fill="#FFFFFF" d="M64.916,300h-1.784v-8.736h-4.707V300h-1.784v-10.295h8.275V300z"/>
		<path fill="#FFFFFF" d="M76.984,294.668c0,0.916-0.128,1.716-0.385,2.399c-0.256,0.684-0.61,1.251-1.061,1.702
			s-0.984,0.789-1.6,1.016c-0.615,0.225-1.282,0.338-2,0.338c-0.328,0-0.655-0.018-0.979-0.051
			c-0.325-0.035-0.654-0.093-0.989-0.175v4.307h-1.784v-14.499h1.589l0.113,1.723c0.513-0.704,1.06-1.197,1.641-1.481
			s1.21-0.426,1.887-0.426c0.588,0,1.104,0.123,1.548,0.369s0.817,0.593,1.118,1.041s0.526,0.987,0.677,1.62
			S76.984,293.889,76.984,294.668z M75.159,294.75c0-0.54-0.04-1.035-0.118-1.486s-0.203-0.838-0.374-1.159s-0.39-0.572-0.656-0.754
			c-0.267-0.181-0.584-0.271-0.954-0.271c-0.226,0-0.455,0.036-0.687,0.107c-0.232,0.072-0.474,0.192-0.723,0.359
			c-0.25,0.167-0.513,0.39-0.79,0.666c-0.276,0.277-0.572,0.62-0.887,1.03v4.994c0.328,0.137,0.673,0.244,1.036,0.323
			s0.718,0.118,1.066,0.118c0.964,0,1.719-0.326,2.266-0.979S75.159,296.063,75.159,294.75z"/>
		<path fill="#FFFFFF" d="M88.694,294.771c0,0.8-0.113,1.533-0.338,2.199c-0.226,0.667-0.55,1.237-0.974,1.713
			s-0.94,0.845-1.548,1.107s-1.299,0.395-2.071,0.395c-0.738,0-1.4-0.114-1.984-0.344c-0.585-0.229-1.081-0.565-1.487-1.01
			s-0.718-0.995-0.933-1.651c-0.216-0.656-0.323-1.411-0.323-2.266c0-0.8,0.113-1.529,0.338-2.189
			c0.226-0.659,0.55-1.227,0.974-1.702c0.424-0.475,0.94-0.844,1.548-1.107c0.608-0.263,1.299-0.395,2.071-0.395
			c0.738,0,1.4,0.114,1.984,0.344c0.585,0.229,1.08,0.563,1.487,1.005c0.406,0.44,0.718,0.989,0.933,1.646
			C88.587,293.171,88.694,293.923,88.694,294.771z M86.869,294.853c0-0.636-0.07-1.19-0.21-1.666c-0.141-0.476-0.34-0.872-0.6-1.189
			c-0.26-0.318-0.576-0.558-0.949-0.718s-0.788-0.241-1.246-0.241c-0.533,0-0.99,0.104-1.369,0.313
			c-0.38,0.209-0.691,0.487-0.934,0.836s-0.42,0.754-0.533,1.215c-0.112,0.462-0.169,0.945-0.169,1.451
			c0,0.636,0.07,1.192,0.21,1.671s0.34,0.877,0.6,1.195c0.26,0.317,0.574,0.557,0.943,0.718s0.786,0.241,1.251,0.241
			c0.533,0,0.99-0.104,1.369-0.313c0.38-0.208,0.69-0.487,0.934-0.835c0.242-0.35,0.42-0.754,0.533-1.216
			C86.813,295.853,86.869,295.365,86.869,294.853z"/>
		<path fill="#FFFFFF" d="M93.206,289.705v7.25l4.491-7.25h1.702V300h-1.784v-7.25L93.124,300h-1.702v-10.295H93.206z"/>
		<path fill="#FFFFFF" d="M102.547,298.154c0.301,0.082,0.622,0.154,0.964,0.215c0.342,0.063,0.68,0.117,1.015,0.164
			c0.335,0.049,0.658,0.084,0.969,0.108s0.59,0.036,0.836,0.036c0.581,0,1.064-0.038,1.451-0.113
			c0.386-0.075,0.693-0.183,0.923-0.323c0.229-0.14,0.391-0.311,0.487-0.513c0.096-0.201,0.144-0.429,0.144-0.682
			c0-0.246-0.043-0.47-0.128-0.672c-0.085-0.201-0.239-0.377-0.461-0.527c-0.223-0.15-0.525-0.268-0.908-0.35
			s-0.872-0.123-1.466-0.123h-2.522v-1.384h2.512c0.52,0,0.945-0.034,1.277-0.103c0.331-0.068,0.593-0.168,0.784-0.297
			c0.191-0.131,0.321-0.287,0.39-0.473c0.068-0.184,0.103-0.396,0.103-0.635c0-0.232-0.043-0.439-0.128-0.621
			c-0.086-0.181-0.228-0.334-0.426-0.461s-0.461-0.225-0.79-0.293s-0.735-0.102-1.22-0.102c-0.533,0-1.118,0.037-1.753,0.112
			s-1.271,0.185-1.907,0.328v-1.507c0.28-0.063,0.583-0.12,0.908-0.175c0.324-0.055,0.654-0.099,0.989-0.134
			c0.335-0.033,0.668-0.061,1-0.082c0.331-0.02,0.647-0.03,0.948-0.03c0.807,0,1.48,0.066,2.02,0.2
			c0.54,0.133,0.974,0.319,1.302,0.559s0.561,0.523,0.697,0.852s0.205,0.687,0.205,1.076c0,0.287-0.041,0.559-0.123,0.815
			c-0.082,0.256-0.208,0.487-0.379,0.692s-0.388,0.379-0.651,0.522c-0.264,0.144-0.58,0.246-0.949,0.308
			c0.369,0.055,0.711,0.146,1.025,0.271c0.314,0.127,0.586,0.295,0.815,0.503s0.41,0.456,0.544,0.743
			c0.133,0.287,0.2,0.615,0.2,0.984c0,0.451-0.087,0.87-0.261,1.256c-0.175,0.387-0.46,0.718-0.856,0.995
			c-0.396,0.276-0.919,0.493-1.569,0.651c-0.649,0.156-1.446,0.235-2.389,0.235c-0.253,0-0.532-0.009-0.836-0.025
			c-0.304-0.018-0.619-0.041-0.943-0.072c-0.325-0.03-0.644-0.068-0.958-0.112c-0.314-0.045-0.608-0.098-0.882-0.159V298.154z"/>
		<path fill="#FFFFFF" d="M123.209,296.996c0,0.471-0.099,0.902-0.297,1.291c-0.198,0.391-0.506,0.724-0.923,1
			c-0.417,0.277-0.945,0.492-1.584,0.646c-0.639,0.153-1.399,0.23-2.281,0.23c-0.581,0-1.2-0.022-1.856-0.066
			c-0.656-0.045-1.289-0.104-1.897-0.18v-10.162c0.643-0.074,1.293-0.133,1.953-0.174s1.373-0.062,2.138-0.062
			c1.388,0,2.442,0.228,3.164,0.682c0.721,0.455,1.082,1.109,1.082,1.964c0,0.581-0.167,1.08-0.502,1.497s-0.841,0.725-1.518,0.923
			c0.328,0.055,0.644,0.146,0.948,0.271c0.304,0.127,0.573,0.291,0.805,0.492c0.232,0.202,0.418,0.439,0.559,0.713
			C123.139,296.336,123.209,296.646,123.209,296.996z M120.881,292.525c0-0.24-0.048-0.455-0.144-0.646s-0.248-0.355-0.457-0.492
			s-0.481-0.241-0.82-0.313c-0.338-0.072-0.747-0.107-1.225-0.107c-0.431,0-0.807,0.008-1.128,0.025s-0.639,0.046-0.954,0.087v2.974
			h2.071C119.996,294.053,120.881,293.543,120.881,292.525z M121.322,297.037c0-0.533-0.241-0.936-0.723-1.205
			c-0.482-0.27-1.232-0.405-2.251-0.405h-2.194v3.147c0.335,0.055,0.667,0.093,0.995,0.113s0.704,0.031,1.128,0.031
			c0.608,0,1.109-0.041,1.502-0.123c0.393-0.082,0.704-0.199,0.933-0.35s0.388-0.328,0.477-0.533S121.322,297.283,121.322,297.037z"
			/>
		<path fill="#FFFFFF" d="M134.878,294.771c0,0.8-0.113,1.533-0.338,2.199c-0.226,0.667-0.55,1.237-0.974,1.713
			s-0.94,0.845-1.548,1.107s-1.299,0.395-2.071,0.395c-0.738,0-1.4-0.114-1.984-0.344c-0.585-0.229-1.081-0.565-1.487-1.01
			s-0.718-0.995-0.933-1.651c-0.216-0.656-0.323-1.411-0.323-2.266c0-0.8,0.113-1.529,0.338-2.189
			c0.226-0.659,0.55-1.227,0.974-1.702c0.424-0.475,0.94-0.844,1.548-1.107c0.608-0.263,1.299-0.395,2.071-0.395
			c0.738,0,1.4,0.114,1.984,0.344c0.585,0.229,1.08,0.563,1.487,1.005c0.406,0.44,0.718,0.989,0.933,1.646
			C134.771,293.171,134.878,293.923,134.878,294.771z M133.053,294.853c0-0.636-0.07-1.19-0.21-1.666
			c-0.141-0.476-0.34-0.872-0.6-1.189c-0.26-0.318-0.576-0.558-0.949-0.718s-0.788-0.241-1.246-0.241
			c-0.533,0-0.99,0.104-1.369,0.313c-0.38,0.209-0.691,0.487-0.934,0.836s-0.42,0.754-0.533,1.215
			c-0.112,0.462-0.169,0.945-0.169,1.451c0,0.636,0.07,1.192,0.21,1.671s0.34,0.877,0.6,1.195c0.26,0.317,0.574,0.557,0.943,0.718
			s0.786,0.241,1.251,0.241c0.533,0,0.99-0.104,1.369-0.313c0.38-0.208,0.69-0.487,0.934-0.835c0.242-0.35,0.42-0.754,0.533-1.216
			C132.996,295.853,133.053,295.365,133.053,294.853z"/>
		<path fill="#FFFFFF" d="M147.019,298.462l-0.113,4.163h-1.63V300h-7.506v2.625h-1.61l-0.103-4.163h0.144
			c0.26,0,0.506-0.041,0.738-0.123s0.448-0.237,0.646-0.467c0.198-0.229,0.381-0.546,0.549-0.953
			c0.167-0.407,0.317-0.934,0.451-1.579c0.133-0.646,0.249-1.431,0.349-2.354c0.099-0.923,0.183-2.017,0.251-3.281h6.357v8.757
			H147.019z M143.758,291.243h-2.871c-0.068,1.176-0.157,2.177-0.267,3.005c-0.109,0.826-0.238,1.521-0.385,2.081
			s-0.316,1.009-0.507,1.343c-0.191,0.336-0.403,0.599-0.636,0.79h4.666V291.243z"/>
		<path fill="#FFFFFF" d="M157.006,299.621c-0.465,0.178-0.942,0.309-1.431,0.395c-0.489,0.085-0.993,0.128-1.512,0.128
			c-1.627,0-2.88-0.44-3.758-1.323c-0.878-0.881-1.317-2.17-1.317-3.865c0-0.813,0.126-1.552,0.379-2.215s0.608-1.23,1.066-1.702
			s1.005-0.836,1.641-1.092c0.636-0.257,1.336-0.385,2.102-0.385c0.533,0,1.032,0.038,1.497,0.112
			c0.465,0.076,0.909,0.199,1.333,0.369v1.703c-0.444-0.232-0.897-0.402-1.358-0.508c-0.462-0.105-0.938-0.159-1.431-0.159
			c-0.458,0-0.891,0.087-1.297,0.262c-0.407,0.174-0.764,0.425-1.072,0.753s-0.55,0.729-0.728,1.2s-0.267,1.005-0.267,1.6
			c0,1.244,0.303,2.176,0.907,2.794c0.605,0.619,1.444,0.928,2.518,0.928c0.485,0,0.955-0.055,1.41-0.164
			c0.454-0.109,0.894-0.273,1.317-0.492V299.621z"/>
		<path fill="#FFFFFF" d="M169.495,291.243h-3.907V300h-1.805v-8.757h-3.907v-1.538h9.618V291.243z"/>
		<path fill="#FFFFFF" d="M180.938,296.996c0,0.471-0.099,0.902-0.297,1.291c-0.198,0.391-0.506,0.724-0.923,1
			c-0.417,0.277-0.945,0.492-1.584,0.646c-0.639,0.153-1.399,0.23-2.281,0.23c-0.581,0-1.2-0.022-1.856-0.066
			c-0.656-0.045-1.289-0.104-1.897-0.18v-10.162c0.643-0.074,1.293-0.133,1.953-0.174s1.373-0.062,2.138-0.062
			c1.388,0,2.442,0.228,3.164,0.682c0.721,0.455,1.082,1.109,1.082,1.964c0,0.581-0.167,1.08-0.502,1.497s-0.841,0.725-1.518,0.923
			c0.328,0.055,0.644,0.146,0.948,0.271c0.304,0.127,0.573,0.291,0.805,0.492c0.232,0.202,0.418,0.439,0.559,0.713
			C180.868,296.336,180.938,296.646,180.938,296.996z M178.611,292.525c0-0.24-0.048-0.455-0.144-0.646s-0.248-0.355-0.457-0.492
			s-0.481-0.241-0.82-0.313c-0.338-0.072-0.747-0.107-1.225-0.107c-0.431,0-0.807,0.008-1.128,0.025s-0.639,0.046-0.954,0.087v2.974
			h2.071C177.726,294.053,178.611,293.543,178.611,292.525z M179.052,297.037c0-0.533-0.241-0.936-0.723-1.205
			c-0.482-0.27-1.232-0.405-2.251-0.405h-2.194v3.147c0.335,0.055,0.667,0.093,0.995,0.113s0.704,0.031,1.128,0.031
			c0.608,0,1.109-0.041,1.502-0.123c0.393-0.082,0.704-0.199,0.933-0.35s0.388-0.328,0.477-0.533S179.052,297.283,179.052,297.037z"
			/>
		<path fill="#FFFFFF" d="M192.341,294.309c0,0.254-0.003,0.465-0.01,0.637c-0.007,0.17-0.017,0.331-0.031,0.481h-7.229
			c0,1.053,0.294,1.861,0.882,2.425c0.588,0.564,1.436,0.846,2.543,0.846c0.301,0,0.602-0.012,0.902-0.035s0.591-0.057,0.872-0.098
			s0.549-0.087,0.805-0.139c0.257-0.051,0.494-0.107,0.713-0.169v1.466c-0.485,0.137-1.034,0.248-1.646,0.334
			c-0.612,0.085-1.246,0.128-1.902,0.128c-0.882,0-1.641-0.12-2.276-0.358c-0.636-0.24-1.157-0.586-1.563-1.041
			c-0.407-0.455-0.708-1.012-0.902-1.672c-0.195-0.659-0.292-1.406-0.292-2.24c0-0.725,0.104-1.41,0.313-2.056
			c0.208-0.646,0.513-1.214,0.912-1.702c0.4-0.488,0.891-0.877,1.472-1.164s1.241-0.431,1.979-0.431
			c0.718,0,1.354,0.112,1.907,0.339c0.554,0.225,1.02,0.545,1.4,0.958c0.379,0.414,0.666,0.917,0.861,1.508
			C192.243,292.916,192.341,293.578,192.341,294.309z M190.485,294.053c0.021-0.458-0.024-0.877-0.133-1.256
			c-0.109-0.38-0.279-0.706-0.508-0.979s-0.514-0.487-0.856-0.641c-0.342-0.154-0.738-0.231-1.189-0.231
			c-0.39,0-0.745,0.076-1.066,0.227s-0.598,0.361-0.831,0.635s-0.42,0.602-0.564,0.984s-0.232,0.804-0.267,1.262H190.485z"/>
		<path fill="#FFFFFF" d="M203.467,300h-1.785v-4.553h-4.706V300h-1.784v-10.295h1.784v4.184h4.706v-4.184h1.785V300z"/>
		<path fill="#FFFFFF" d="M215.013,300h-1.785v-4.553h-4.706V300h-1.784v-10.295h1.784v4.184h4.706v-4.184h1.785V300z"/>
		<path fill="#FFFFFF" d="M224.896,300l-0.041-1.385c-0.561,0.555-1.129,0.954-1.707,1.2c-0.577,0.246-1.184,0.369-1.82,0.369
			c-0.588,0-1.09-0.075-1.507-0.226s-0.761-0.357-1.03-0.62c-0.271-0.263-0.469-0.573-0.595-0.929
			c-0.127-0.355-0.19-0.741-0.19-1.158c0-1.032,0.385-1.841,1.154-2.425c0.769-0.585,1.905-0.877,3.409-0.877h2.133v-0.902
			c0-0.608-0.194-1.095-0.585-1.461c-0.389-0.366-0.984-0.549-1.783-0.549c-0.582,0-1.154,0.065-1.718,0.194
			c-0.564,0.131-1.147,0.314-1.749,0.555v-1.61c0.227-0.082,0.478-0.162,0.754-0.241c0.277-0.078,0.569-0.148,0.877-0.21
			s0.629-0.11,0.964-0.148s0.673-0.057,1.015-0.057c0.622,0,1.183,0.068,1.682,0.205s0.922,0.345,1.267,0.626
			c0.346,0.279,0.61,0.632,0.795,1.056s0.276,0.923,0.276,1.497V300H224.896z M224.702,295.314h-2.267
			c-0.444,0-0.827,0.044-1.148,0.133s-0.584,0.215-0.789,0.379s-0.357,0.361-0.456,0.59c-0.1,0.229-0.149,0.487-0.149,0.774
			c0,0.198,0.031,0.388,0.093,0.569s0.16,0.342,0.298,0.481c0.136,0.141,0.313,0.251,0.533,0.333
			c0.218,0.082,0.484,0.123,0.799,0.123c0.41,0,0.881-0.124,1.41-0.374c0.53-0.249,1.089-0.644,1.677-1.185V295.314z"/>
		<path fill="#FFFFFF" d="M230.476,297.026c0.225-0.479,0.473-0.841,0.743-1.087c0.27-0.246,0.61-0.41,1.021-0.492
			c-0.432-0.082-0.787-0.215-1.066-0.4c-0.281-0.184-0.505-0.397-0.672-0.641c-0.168-0.242-0.284-0.5-0.349-0.773
			c-0.065-0.273-0.098-0.544-0.098-0.811c0-0.451,0.075-0.875,0.226-1.271s0.393-0.742,0.729-1.035
			c0.334-0.295,0.773-0.527,1.317-0.697c0.543-0.172,1.32-0.257,2.333-0.257c0.566,0,1.127,0.019,1.682,0.057
			c0.553,0.038,1.097,0.083,1.63,0.138V300h-1.784v-3.988h-1.549c-0.239,0-0.483,0.021-0.732,0.066
			c-0.25,0.045-0.477,0.127-0.682,0.246s-0.392,0.275-0.56,0.467c-0.167,0.191-0.316,0.434-0.446,0.728L231.091,300h-2.021
			L230.476,297.026z M231.88,292.802c0,0.588,0.2,1.028,0.6,1.323c0.4,0.293,0.993,0.44,1.779,0.44h1.928v-3.445
			c-0.294-0.027-0.578-0.048-0.852-0.062s-0.561-0.021-0.861-0.021c-0.588,0-1.035,0.04-1.343,0.118s-0.551,0.191-0.728,0.338
			c-0.179,0.147-0.31,0.326-0.396,0.539C231.923,292.244,231.88,292.501,231.88,292.802z"/>
		<path fill="#FFFFFF" d="M262.181,300h-2.451l-4.799-5.517V300h-1.784v-10.295h1.784v4.707l4.625-4.707h2.357l-4.829,4.748
			L262.181,300z"/>
		<path fill="#FFFFFF" d="M273.429,294.771c0,0.8-0.112,1.533-0.339,2.199c-0.225,0.667-0.55,1.237-0.974,1.713
			s-0.94,0.845-1.548,1.107c-0.609,0.263-1.3,0.395-2.072,0.395c-0.738,0-1.399-0.114-1.983-0.344
			c-0.585-0.229-1.08-0.565-1.487-1.01c-0.406-0.444-0.718-0.995-0.933-1.651c-0.216-0.656-0.323-1.411-0.323-2.266
			c0-0.8,0.113-1.529,0.338-2.189c0.227-0.659,0.551-1.227,0.975-1.702c0.424-0.475,0.939-0.844,1.549-1.107
			c0.607-0.263,1.298-0.395,2.07-0.395c0.738,0,1.4,0.114,1.984,0.344c0.585,0.229,1.08,0.563,1.487,1.005
			c0.406,0.44,0.718,0.989,0.933,1.646C273.321,293.171,273.429,293.923,273.429,294.771z M271.604,294.853
			c0-0.636-0.07-1.19-0.21-1.666c-0.141-0.476-0.341-0.872-0.601-1.189c-0.26-0.318-0.575-0.558-0.948-0.718
			c-0.372-0.16-0.788-0.241-1.245-0.241c-0.533,0-0.99,0.104-1.369,0.313c-0.38,0.209-0.69,0.487-0.934,0.836
			c-0.242,0.349-0.42,0.754-0.533,1.215c-0.112,0.462-0.169,0.945-0.169,1.451c0,0.636,0.07,1.192,0.21,1.671
			c0.141,0.479,0.34,0.877,0.6,1.195c0.26,0.317,0.574,0.557,0.943,0.718s0.786,0.241,1.252,0.241c0.533,0,0.989-0.104,1.368-0.313
			c0.38-0.208,0.69-0.487,0.934-0.835c0.242-0.35,0.42-0.754,0.533-1.216C271.547,295.853,271.604,295.365,271.604,294.853z"/>
		<path fill="#FFFFFF" d="M285.415,300h-1.764l-0.266-6.43l-0.113-2.286l-0.605,1.6l-1.928,4.676h-1.302l-1.856-4.491l-0.646-1.784
			l-0.082,2.42L276.577,300h-1.703l0.656-10.295h2.369l1.764,4.439l0.482,1.323l0.481-1.323l1.805-4.439h2.338L285.415,300z"/>
		<path fill="#FFFFFF" d="M295.834,300h-1.785v-8.736h-4.706V300h-1.784v-10.295h8.275V300z"/>
		<path fill="#FFFFFF" d="M305.718,300l-0.041-1.385c-0.561,0.555-1.129,0.954-1.707,1.2c-0.577,0.246-1.184,0.369-1.82,0.369
			c-0.588,0-1.09-0.075-1.507-0.226s-0.761-0.357-1.03-0.62c-0.271-0.263-0.469-0.573-0.595-0.929
			c-0.127-0.355-0.19-0.741-0.19-1.158c0-1.032,0.385-1.841,1.154-2.425c0.769-0.585,1.905-0.877,3.409-0.877h2.133v-0.902
			c0-0.608-0.194-1.095-0.585-1.461c-0.389-0.366-0.984-0.549-1.783-0.549c-0.582,0-1.154,0.065-1.718,0.194
			c-0.564,0.131-1.147,0.314-1.749,0.555v-1.61c0.227-0.082,0.478-0.162,0.754-0.241c0.277-0.078,0.569-0.148,0.877-0.21
			s0.629-0.11,0.964-0.148s0.673-0.057,1.015-0.057c0.622,0,1.183,0.068,1.682,0.205s0.922,0.345,1.267,0.626
			c0.346,0.279,0.61,0.632,0.795,1.056s0.276,0.923,0.276,1.497V300H305.718z M305.523,295.314h-2.267
			c-0.444,0-0.827,0.044-1.148,0.133s-0.584,0.215-0.789,0.379s-0.357,0.361-0.456,0.59c-0.1,0.229-0.149,0.487-0.149,0.774
			c0,0.198,0.031,0.388,0.093,0.569s0.16,0.342,0.298,0.481c0.136,0.141,0.313,0.251,0.533,0.333
			c0.218,0.082,0.484,0.123,0.799,0.123c0.41,0,0.881-0.124,1.41-0.374c0.53-0.249,1.089-0.644,1.677-1.185V295.314z"/>
		<path fill="#FFFFFF" d="M318.926,300h-1.785v-4.553h-4.706V300h-1.784v-10.295h1.784v4.184h4.706v-4.184h1.785V300z"/>
		<path fill="#FFFFFF" d="M324.124,289.705v7.25l4.491-7.25h1.702V300h-1.784v-7.25l-4.491,7.25h-1.702v-10.295H324.124z"/>
		<path fill="#FFFFFF" d="M334.389,297.026c0.225-0.479,0.473-0.841,0.743-1.087c0.27-0.246,0.61-0.41,1.021-0.492
			c-0.432-0.082-0.787-0.215-1.066-0.4c-0.281-0.184-0.505-0.397-0.672-0.641c-0.168-0.242-0.284-0.5-0.349-0.773
			c-0.065-0.273-0.098-0.544-0.098-0.811c0-0.451,0.075-0.875,0.226-1.271s0.393-0.742,0.729-1.035
			c0.334-0.295,0.773-0.527,1.317-0.697c0.543-0.172,1.32-0.257,2.333-0.257c0.566,0,1.127,0.019,1.682,0.057
			c0.553,0.038,1.097,0.083,1.63,0.138V300H340.1v-3.988h-1.549c-0.239,0-0.483,0.021-0.732,0.066
			c-0.25,0.045-0.477,0.127-0.682,0.246s-0.392,0.275-0.56,0.467c-0.167,0.191-0.316,0.434-0.446,0.728L335.004,300h-2.021
			L334.389,297.026z M335.793,292.802c0,0.588,0.2,1.028,0.6,1.323c0.4,0.293,0.993,0.44,1.779,0.44h1.928v-3.445
			c-0.294-0.027-0.578-0.048-0.852-0.062s-0.561-0.021-0.861-0.021c-0.588,0-1.035,0.04-1.343,0.118s-0.551,0.191-0.728,0.338
			c-0.179,0.147-0.31,0.326-0.396,0.539C335.836,292.244,335.793,292.501,335.793,292.802z"/>
	</g>
</g>
</svg>
