<?xml version="1.0" encoding="utf-8"?>
<!-- Generator: Adobe Illustrator 16.0.0, SVG Export Plug-In . SVG Version: 6.00 Build 0)  -->
<!DOCTYPE svg PUBLIC "-//W3C//DTD SVG 1.1//EN" "http://www.w3.org/Graphics/SVG/1.1/DTD/svg11.dtd">
<svg version="1.1" id="Layer_1" xmlns="http://www.w3.org/2000/svg" xmlns:xlink="http://www.w3.org/1999/xlink" x="0px" y="0px"
	 width="400px" height="350px" viewBox="0 0 400 350" enable-background="new 0 0 400 350" xml:space="preserve">
<g>
	<path fill-rule="evenodd" clip-rule="evenodd" fill="#F16624" d="M338.297,236.484c0-0.161,0.006-0.32,0.006-0.481
		c0-83.679-61.98-151.515-138.432-151.515c-76.454,0-138.431,67.836-138.431,151.515c0,0.161,0.006,0.32,0.006,0.481H338.297
		L338.297,236.484z"/>
	<path fill-rule="evenodd" clip-rule="evenodd" fill="#F89520" d="M313.609,236.484c0-0.13,0.004-0.263,0.004-0.396
		c0-68.755-50.924-124.492-113.742-124.492c-62.819,0-113.743,55.737-113.743,124.492c0,0.133,0.004,0.266,0.004,0.396H313.609
		L313.609,236.484z"/>
	<polygon fill-rule="evenodd" clip-rule="evenodd" fill="#442162" points="102.595,216.821 158.357,212.583 158.357,195.549 
		102.595,206.206 102.595,216.821 	"/>
	<polygon fill-rule="evenodd" clip-rule="evenodd" fill="#442162" points="164.383,212.124 233.363,206.881 233.363,181.216 
		164.383,194.397 164.383,212.124 	"/>
	<path fill-rule="evenodd" clip-rule="evenodd" fill="#442162" d="M331.141,91.264c0-0.052-0.014-0.103-0.021-0.155
		c-0.426-19.208-14.775-34.637-32.428-34.637c-6.873,0-13.244,2.345-18.488,6.334c-7.197-10.282-18.527-16.922-31.277-16.922
		c-17.781,0-32.801,12.894-37.697,30.602c-6.74,1.04-12.811,4.348-17.556,9.192c-3.563-3.13-8.081-5.012-13.005-5.012
		c-11.492,0-20.807,10.196-20.807,22.773c0,12.579,9.314,22.772,20.807,22.772c1.808,0,3.554-0.277,5.227-0.753
		c4.924,12.75,16.459,21.697,29.901,21.697c0.092,0,0.18-0.008,0.277-0.01l-21.504,11.992l-30.185-9.9l-44.438,25.355l-17.38-6.053
		l-42.25,25.633v42.313h279.113L331.141,91.264L331.141,91.264z M246.463,227.413l-183.384,6.049v-37.581l39.486-21.362v12.218
		l61.819-29.201v20.566l82.08-37.32V227.413L246.463,227.413z M304.264,146.714l-51.795-14.8
		c9.773-0.957,18.516-5.817,24.926-13.151c5.699,5.436,13.143,8.735,21.297,8.735c2.234,0,4.416-0.248,6.521-0.718L304.264,146.714
		L304.264,146.714z M319.021,150.751l-11.072-3.326l1.646-52.882c0-3.188,4.375-3.762,9.426-3.762V150.751L319.021,150.751z
		 M324.482,87.086c-0.357-0.07-0.727-0.133-1.104-0.188c-0.086-0.013-0.176-0.025-0.264-0.038c-0.328-0.045-0.66-0.085-0.996-0.119
		c-0.119-0.011-0.238-0.024-0.355-0.036c-0.328-0.03-0.66-0.052-0.996-0.07c-0.125-0.007-0.244-0.017-0.369-0.022
		c-0.451-0.02-0.91-0.032-1.377-0.032c-0.402,0-0.797,0.009-1.188,0.024c-0.139,0.005-0.27,0.014-0.406,0.021
		c-0.248,0.013-0.5,0.025-0.746,0.044c-0.162,0.012-0.32,0.029-0.477,0.043c-0.213,0.02-0.428,0.039-0.635,0.063
		c-0.172,0.02-0.336,0.042-0.504,0.065c-0.188,0.024-0.377,0.05-0.559,0.078c-0.178,0.027-0.354,0.058-0.525,0.089
		c-0.16,0.029-0.322,0.058-0.48,0.089c-0.184,0.036-0.363,0.076-0.539,0.114c-0.137,0.031-0.273,0.062-0.406,0.096
		c-0.188,0.045-0.375,0.093-0.553,0.143c-0.109,0.029-0.215,0.061-0.32,0.092c-0.193,0.058-0.385,0.115-0.57,0.178
		c-0.076,0.025-0.146,0.052-0.223,0.077c-0.205,0.073-0.402,0.144-0.596,0.221c-0.031,0.012-0.059,0.025-0.09,0.04
		c-1.678,0.688-2.814,1.57-3.172,2.553c-1.377-2.414-2.184-5.261-2.184-8.321h-2.09c0,4.5,1.52,8.601,4.01,11.758l-1.34,28.201
		c-2.613,0.886-5.391,1.363-8.27,1.363c-6.824,0-13.066-2.692-17.918-7.145c1.824-2.417,3.416-5.047,4.732-7.862l-5.225-2.623
		c-1.256,2.881-2.834,5.558-4.686,7.982c-6.354,8.332-15.91,13.638-26.602,13.638c-2.6,0-5.125-0.331-7.559-0.925
		c-2.699-0.661-5.277-1.666-7.697-2.968l-1.904,3.269c2.258,1.332,4.656,2.415,7.156,3.247
		c-5.141,7.695-13.443,12.696-22.818,12.696c-11.58,0-21.514-7.635-25.876-18.545c2.019-0.943,3.872-2.212,5.509-3.767l-2.047-2.382
		c-1.596,1.635-3.462,2.944-5.522,3.849c-2.042,0.905-4.267,1.419-6.604,1.419c-9.807,0-17.753-8.701-17.753-19.433
		s7.946-19.433,17.753-19.433c5.387,0,10.204,2.638,13.461,6.785c4.983-6.108,12.147-10.029,20.157-10.312
		c3.555-16.808,17.309-29.341,33.746-29.341c12.986,0,24.295,7.826,30.229,19.397c5.033-5.361,11.898-8.667,19.469-8.667
		c13.564,0,24.861,10.58,27.395,24.608C324.529,87.094,324.506,87.091,324.482,87.086L324.482,87.086z"/>
	<polygon fill-rule="evenodd" clip-rule="evenodd" fill="#442162" points="67.889,219.459 99.004,217.094 99.004,206.891 
		67.889,212.838 67.889,219.459 	"/>
	<path fill-rule="evenodd" clip-rule="evenodd" fill="#FFFFFF" d="M164.383,157.535l-61.819,29.201v-12.218l-39.486,21.362v37.581
		l183.384-6.049v-86.631l-82.08,37.32V157.535L164.383,157.535z M99.004,217.094l-31.115,2.365v-6.621l31.115-5.947V217.094
		L99.004,217.094z M158.357,212.583l-55.762,4.238v-10.615l55.762-10.657V212.583L158.357,212.583z M233.363,181.216v25.665
		l-68.98,5.243v-17.727L233.363,181.216L233.363,181.216z"/>
	<path fill-rule="evenodd" clip-rule="evenodd" fill="#FFFFFF" d="M297.16,62.491c-7.57,0-14.436,3.307-19.469,8.667
		c-5.934-11.571-17.242-19.397-30.229-19.397c-16.438,0-30.191,12.534-33.746,29.341c-8.01,0.282-15.174,4.204-20.157,10.312
		c-3.257-4.147-8.074-6.785-13.461-6.785c-9.807,0-17.753,8.701-17.753,19.433s7.946,19.433,17.753,19.433
		c2.338,0,4.563-0.515,6.604-1.419c2.061-0.904,3.927-2.214,5.522-3.849l2.047,2.382c-1.637,1.554-3.491,2.823-5.509,3.767
		c4.362,10.911,14.296,18.545,25.876,18.545c9.375,0,17.678-5.001,22.818-12.696c-2.5-0.832-4.898-1.915-7.156-3.247l1.904-3.269
		c2.42,1.302,4.998,2.307,7.697,2.968c2.434,0.595,4.959,0.925,7.559,0.925c10.691,0,20.248-5.306,26.602-13.638
		c1.852-2.424,3.43-5.102,4.686-7.982l5.225,2.623c-1.316,2.814-2.908,5.444-4.732,7.862c4.852,4.452,11.094,7.145,17.918,7.145
		c2.881,0,5.656-0.477,8.27-1.363l1.34-28.2c-2.49-3.157-4.01-7.258-4.01-11.759h2.09c0,3.06,0.807,5.908,2.184,8.321
		c0.824-2.276,5.869-4.03,11.988-4.03c1.994,0,3.871,0.189,5.533,0.518C322.021,73.07,310.725,62.491,297.16,62.491L297.16,62.491z"
		/>
	<path fill-rule="evenodd" clip-rule="evenodd" fill="#FFFFFF" d="M309.596,94.542l-1.646,52.882l11.072,3.326V90.78
		C313.971,90.78,309.596,91.355,309.596,94.542L309.596,94.542z"/>
	<g>
		<path fill="#FFFFFF" d="M37.387,263.205c0,2.859-0.067,4.884-0.202,6.073s-0.557,2.276-1.266,3.261s-1.667,1.74-2.874,2.268
			s-2.613,0.791-4.219,0.791c-1.523,0-2.892-0.249-4.104-0.747s-2.188-1.245-2.927-2.241s-1.178-2.08-1.318-3.252
			s-0.211-3.223-0.211-6.152v-4.869c0-2.859,0.067-4.884,0.202-6.073s0.557-2.276,1.266-3.261s1.667-1.74,2.874-2.268
			s2.613-0.791,4.219-0.791c1.523,0,2.892,0.249,4.104,0.747s2.188,1.245,2.927,2.241s1.178,2.08,1.318,3.252
			s0.211,3.223,0.211,6.152V263.205z M29.986,253.854c0-1.324-0.073-2.171-0.22-2.54s-0.448-0.554-0.905-0.554
			c-0.387,0-0.683,0.149-0.888,0.448s-0.308,1.181-0.308,2.646v13.289c0,1.652,0.067,2.672,0.202,3.059s0.448,0.58,0.94,0.58
			c0.504,0,0.826-0.223,0.967-0.668s0.211-1.506,0.211-3.182V253.854z"/>
		<path fill="#FFFFFF" d="M57.057,263.205c0,2.859-0.067,4.884-0.202,6.073s-0.557,2.276-1.266,3.261s-1.667,1.74-2.874,2.268
			s-2.613,0.791-4.219,0.791c-1.523,0-2.892-0.249-4.104-0.747s-2.188-1.245-2.927-2.241s-1.178-2.08-1.318-3.252
			s-0.211-3.223-0.211-6.152v-4.869c0-2.859,0.067-4.884,0.202-6.073s0.557-2.276,1.266-3.261s1.667-1.74,2.874-2.268
			s2.613-0.791,4.219-0.791c1.523,0,2.892,0.249,4.104,0.747s2.188,1.245,2.927,2.241s1.178,2.08,1.318,3.252
			s0.211,3.223,0.211,6.152V263.205z M49.656,253.854c0-1.324-0.073-2.171-0.22-2.54s-0.448-0.554-0.905-0.554
			c-0.387,0-0.683,0.149-0.888,0.448s-0.308,1.181-0.308,2.646v13.289c0,1.652,0.067,2.672,0.202,3.059s0.448,0.58,0.94,0.58
			c0.504,0,0.826-0.223,0.967-0.668s0.211-1.506,0.211-3.182V253.854z"/>
		<path fill="#FFFFFF" d="M76.727,263.205c0,2.859-0.067,4.884-0.202,6.073s-0.557,2.276-1.266,3.261s-1.667,1.74-2.874,2.268
			s-2.613,0.791-4.219,0.791c-1.523,0-2.892-0.249-4.104-0.747s-2.188-1.245-2.927-2.241s-1.178-2.08-1.318-3.252
			s-0.211-3.223-0.211-6.152v-4.869c0-2.859,0.067-4.884,0.202-6.073s0.557-2.276,1.266-3.261s1.667-1.74,2.874-2.268
			s2.613-0.791,4.219-0.791c1.523,0,2.892,0.249,4.104,0.747s2.188,1.245,2.927,2.241s1.178,2.08,1.318,3.252
			s0.211,3.223,0.211,6.152V263.205z M69.326,253.854c0-1.324-0.073-2.171-0.22-2.54s-0.448-0.554-0.905-0.554
			c-0.387,0-0.683,0.149-0.888,0.448s-0.308,1.181-0.308,2.646v13.289c0,1.652,0.067,2.672,0.202,3.059s0.448,0.58,0.94,0.58
			c0.504,0,0.826-0.223,0.967-0.668s0.211-1.506,0.211-3.182V253.854z"/>
		<path fill="#FFFFFF" d="M86.465,253.238h4.166l-1.477,9.545l1.477,10.037h-4.166l-1.477-10.037L86.465,253.238z M92.916,253.238
			h4.166l-1.494,9.545l1.494,10.037h-4.166l-1.494-10.037L92.916,253.238z"/>
		<path fill="#FFFFFF" d="M116.207,246.541V275h-7.4v-11.953h-2.215V275h-7.4v-28.459h7.4v10.178h2.215v-10.178H116.207z"/>
		<path fill="#FFFFFF" d="M119.178,246.541h12.34v5.695h-4.939v5.396h4.623v5.414h-4.623v6.258h5.432V275h-12.832V246.541z"/>
		<path fill="#FFFFFF" d="M134.137,246.541h7.383c2.332,0,4.099,0.182,5.3,0.545s2.171,1.098,2.909,2.204s1.107,2.89,1.107,5.349
			c0,1.664-0.261,2.822-0.782,3.479s-1.55,1.16-3.085,1.511c1.711,0.388,2.871,1.028,3.48,1.926s0.914,2.272,0.914,4.124v2.639
			c0,1.924-0.22,3.348-0.659,4.273c-0.439,0.927-1.14,1.561-2.101,1.9s-2.93,0.51-5.906,0.51h-8.561V246.541z M141.537,251.41v6.328
			c0.316-0.012,0.563-0.018,0.738-0.018c0.727,0,1.189-0.179,1.389-0.536s0.299-1.38,0.299-3.067c0-0.891-0.082-1.515-0.246-1.872
			s-0.378-0.583-0.642-0.677S142.299,251.422,141.537,251.41z M141.537,262.168v7.963c1.043-0.035,1.708-0.199,1.995-0.492
			s0.431-1.014,0.431-2.162v-2.654c0-1.219-0.129-1.957-0.387-2.215S142.639,262.203,141.537,262.168z"/>
		<path fill="#FFFFFF" d="M166.81,246.541L171.042,275h-7.563l-0.397-5.115h-2.647L159.99,275h-7.651l3.775-28.459H166.81z
			 M162.888,264.84c-0.375-3.224-0.75-7.207-1.127-11.953c-0.754,5.449-1.228,9.434-1.42,11.953H162.888z"/>
		<path fill="#FFFFFF" d="M180.789,260.885v4.904h-9.334v-4.904H180.789z"/>
		<path fill="#FFFFFF" d="M195.691,246.541L199.923,275h-7.563l-0.397-5.115h-2.647L188.871,275h-7.651l3.775-28.459H195.691z
			 M191.769,264.84c-0.375-3.224-0.75-7.207-1.127-11.953c-0.754,5.449-1.228,9.434-1.42,11.953H191.769z"/>
		<path fill="#FFFFFF" d="M216.086,246.541v5.695h-4.395V275h-7.4v-22.764h-4.377v-5.695H216.086z"/>
		<path fill="#FFFFFF" d="M232.68,246.541v5.695h-4.395V275h-7.4v-22.764h-4.377v-5.695H232.68z"/>
		<path fill="#FFFFFF" d="M234.367,246.541h7.453c2.016,0,3.565,0.158,4.649,0.475s1.898,0.773,2.443,1.371s0.914,1.321,1.107,2.171
			s0.29,2.165,0.29,3.946v2.479c0,1.816-0.188,3.141-0.563,3.973s-1.063,1.471-2.065,1.916s-2.312,0.668-3.929,0.668h-1.986V275
			h-7.4V246.541z M241.768,251.41v7.242c0.211,0.012,0.393,0.018,0.545,0.018c0.68,0,1.151-0.167,1.415-0.501
			s0.396-1.028,0.396-2.083v-2.338c0-0.973-0.152-1.605-0.457-1.898S242.729,251.41,241.768,251.41z"/>
		<path fill="#FFFFFF" d="M265.23,246.541L269.462,275h-7.563l-0.396-5.115h-2.647L258.41,275h-7.651l3.774-28.459H265.23z
			 M261.308,264.84c-0.374-3.224-0.75-7.207-1.127-11.953c-0.754,5.449-1.228,9.434-1.42,11.953H261.308z"/>
		<path fill="#FFFFFF" d="M270.719,246.523h7.418l0.035,12.023c1.395-0.035,2.115-0.809,2.162-2.32l0.141-5.555
			c0.047-2.051,0.445-3.434,1.195-4.148h6.838c-0.668,0.691-0.996,2.121-0.984,4.289l0.035,4.887
			c0.023,2.953-1.641,4.635-4.992,5.045c3.352,0.41,5.016,2.115,4.992,5.115l-0.035,4.535c-0.012,2.156,0.316,3.691,0.984,4.605
			h-6.838c-0.797-0.715-1.195-2.098-1.195-4.148v-5.555c0-0.703-0.214-1.269-0.642-1.696s-0.981-0.647-1.661-0.659L278.137,275
			h-7.418V246.523z"/>
		<path fill="#FFFFFF" d="M308.564,279.904h-5.115V275h-13.43v-28.477h7.418v22.781h2.197v-22.781h7.418v22.781h1.512V279.904z"/>
		<path fill="#FFFFFF" d="M327.057,275h-6.188v-12.955L317.02,275h-6.486v-28.477h6.188v12.85l4.148-12.85h6.188V275z"/>
		<path fill="#FFFFFF" d="M346.92,263.205c0,2.859-0.067,4.884-0.202,6.073s-0.557,2.276-1.266,3.261s-1.667,1.74-2.874,2.268
			s-2.613,0.791-4.219,0.791c-1.523,0-2.892-0.249-4.104-0.747s-2.188-1.245-2.927-2.241s-1.178-2.08-1.318-3.252
			s-0.211-3.223-0.211-6.152v-4.869c0-2.859,0.067-4.884,0.202-6.073s0.557-2.276,1.266-3.261s1.667-1.74,2.874-2.268
			s2.613-0.791,4.219-0.791c1.523,0,2.892,0.249,4.104,0.747s2.188,1.245,2.927,2.241s1.178,2.08,1.318,3.252
			s0.211,3.223,0.211,6.152V263.205z M339.52,253.854c0-1.324-0.073-2.171-0.22-2.54s-0.448-0.554-0.905-0.554
			c-0.387,0-0.683,0.149-0.888,0.448s-0.308,1.181-0.308,2.646v13.289c0,1.652,0.067,2.672,0.202,3.059s0.448,0.58,0.94,0.58
			c0.504,0,0.826-0.223,0.967-0.668s0.211-1.506,0.211-3.182V253.854z"/>
		<path fill="#FFFFFF" d="M366.695,246.541V275h-7.4v-11.953h-2.215V275h-7.4v-28.459h7.4v10.178h2.215v-10.178H366.695z"/>
		<path fill="#FFFFFF" d="M372.988,253.238l1.477,9.545l-1.477,10.037h-4.166l1.477-10.037l-1.477-9.545H372.988z M379.422,253.238
			l1.494,9.545l-1.494,10.037h-4.166l1.494-10.037l-1.494-9.545H379.422z"/>
	</g>
	<g>
		<path fill="#FFFFFF" d="M38.302,300v-9.852H33.48V300h-2.93v-12.402h10.669V300H38.302z"/>
		<path fill="#FFFFFF" d="M55.599,293.579c0,1.14-0.161,2.124-0.482,2.954c-0.322,0.83-0.77,1.52-1.343,2.069
			c-0.574,0.549-1.251,0.956-2.033,1.221s-1.632,0.396-2.551,0.396c-0.31,0-0.619-0.021-0.928-0.062
			c-0.31-0.041-0.59-0.094-0.842-0.158v4.846h-2.979v-17.248h2.576l0.073,1.831c0.252-0.317,0.515-0.606,0.787-0.866
			c0.273-0.261,0.568-0.482,0.885-0.666c0.317-0.183,0.659-0.323,1.025-0.421s0.777-0.146,1.233-0.146
			c0.732,0,1.383,0.146,1.953,0.439c0.569,0.293,1.048,0.71,1.435,1.251c0.386,0.541,0.681,1.196,0.885,1.966
			C55.497,291.754,55.599,292.619,55.599,293.579z M52.474,293.701c0-0.684-0.049-1.266-0.146-1.746
			c-0.098-0.479-0.238-0.874-0.421-1.184c-0.183-0.309-0.407-0.535-0.671-0.678c-0.265-0.143-0.568-0.213-0.91-0.213
			c-0.505,0-0.987,0.203-1.447,0.609c-0.459,0.408-0.946,0.961-1.458,1.66v5.42c0.236,0.09,0.527,0.164,0.873,0.221
			c0.346,0.057,0.698,0.085,1.056,0.085c0.472,0,0.901-0.098,1.288-0.293c0.387-0.195,0.716-0.472,0.989-0.83
			c0.272-0.358,0.482-0.796,0.628-1.313S52.474,294.344,52.474,293.701z"/>
		<path fill="#FFFFFF" d="M69.356,293.701c0,0.977-0.139,1.869-0.415,2.68c-0.277,0.81-0.676,1.504-1.196,2.081
			c-0.521,0.578-1.16,1.025-1.917,1.343s-1.62,0.477-2.588,0.477c-0.92,0-1.742-0.135-2.466-0.403
			c-0.725-0.269-1.339-0.669-1.843-1.202c-0.505-0.533-0.891-1.201-1.16-2.002c-0.269-0.802-0.403-1.735-0.403-2.802
			c0-0.984,0.141-1.88,0.421-2.686c0.281-0.806,0.684-1.493,1.209-2.063c0.524-0.568,1.166-1.011,1.922-1.324
			c0.757-0.313,1.611-0.47,2.563-0.47c0.928,0,1.753,0.136,2.478,0.409c0.724,0.272,1.338,0.678,1.843,1.215
			c0.504,0.537,0.889,1.202,1.154,1.995C69.224,291.742,69.356,292.66,69.356,293.701z M66.256,293.774
			c0-1.286-0.242-2.252-0.727-2.899c-0.484-0.646-1.198-0.971-2.142-0.971c-0.521,0-0.964,0.103-1.331,0.306
			c-0.366,0.204-0.667,0.482-0.903,0.836c-0.236,0.354-0.409,0.768-0.519,1.239c-0.11,0.473-0.165,0.977-0.165,1.514
			c0,1.294,0.26,2.269,0.781,2.924c0.521,0.654,1.233,0.982,2.136,0.982c0.496,0,0.928-0.1,1.294-0.299s0.663-0.477,0.891-0.83
			c0.228-0.354,0.398-0.771,0.513-1.252C66.199,294.845,66.256,294.328,66.256,293.774z"/>
		<path fill="#FFFFFF" d="M79.513,300v-7.752h-0.024L74.593,300h-2.82v-12.402h2.93v7.752h0.024l4.883-7.752h2.832V300H79.513z"/>
		<path fill="#FFFFFF" d="M85.274,297.412c0.684,0.195,1.463,0.346,2.338,0.451c0.875,0.106,1.67,0.159,2.386,0.159
			c0.724,0,1.268-0.044,1.629-0.134c0.362-0.09,0.664-0.214,0.903-0.373c0.24-0.158,0.421-0.346,0.543-0.562
			s0.183-0.449,0.183-0.702c0-0.252-0.057-0.476-0.171-0.671c-0.114-0.195-0.301-0.362-0.562-0.501
			c-0.261-0.138-0.606-0.244-1.038-0.316c-0.432-0.074-0.957-0.11-1.575-0.11h-3.284v-2.124h3.113c0.74,0,1.28-0.043,1.617-0.128
			c0.338-0.086,0.608-0.202,0.812-0.349c0.203-0.146,0.348-0.314,0.433-0.506c0.086-0.191,0.128-0.396,0.128-0.617
			c0-0.211-0.045-0.402-0.134-0.573c-0.09-0.171-0.24-0.315-0.452-0.434c-0.212-0.118-0.511-0.209-0.897-0.274
			c-0.387-0.064-0.89-0.098-1.508-0.098c-0.554,0-1.202,0.041-1.947,0.122c-0.744,0.081-1.475,0.216-2.191,0.403v-2.332
			c0.684-0.113,1.414-0.211,2.191-0.293c0.777-0.081,1.544-0.122,2.301-0.122c1.978,0,3.424,0.276,4.339,0.83
			c0.916,0.554,1.374,1.359,1.374,2.417c0,0.285-0.047,0.57-0.14,0.854c-0.094,0.285-0.238,0.554-0.434,0.806
			s-0.441,0.477-0.738,0.672c-0.297,0.195-0.646,0.35-1.044,0.463c0.398,0.058,0.779,0.164,1.142,0.318
			c0.362,0.154,0.679,0.355,0.952,0.604c0.272,0.248,0.488,0.541,0.646,0.879c0.159,0.338,0.238,0.715,0.238,1.129
			c0,1.311-0.549,2.302-1.648,2.973c-1.099,0.672-2.759,1.008-4.98,1.008c-0.7,0-1.434-0.037-2.204-0.11
			c-0.769-0.073-1.548-0.179-2.337-0.317L85.274,297.412z"/>
		<path fill="#FFFFFF" d="M104.146,300.22c-0.83,0-1.65-0.03-2.46-0.092c-0.81-0.061-1.622-0.152-2.435-0.274V287.72
			c1.717-0.228,3.434-0.342,5.151-0.342c1.872,0,3.247,0.259,4.126,0.775s1.318,1.275,1.318,2.276c0,0.326-0.047,0.641-0.14,0.946
			c-0.094,0.305-0.238,0.586-0.434,0.842c-0.195,0.257-0.439,0.493-0.732,0.708c-0.293,0.216-0.643,0.389-1.05,0.52
			c0.407,0.049,0.789,0.146,1.147,0.293c0.358,0.146,0.673,0.338,0.946,0.573c0.272,0.236,0.488,0.522,0.646,0.86
			c0.159,0.338,0.238,0.715,0.238,1.129c0,1.336-0.539,2.322-1.617,2.961C107.774,299.9,106.205,300.22,104.146,300.22z
			 M106.771,290.979c0-0.455-0.2-0.799-0.598-1.031c-0.399-0.231-0.993-0.348-1.782-0.348c-0.497,0-0.908,0.006-1.233,0.019
			c-0.326,0.012-0.651,0.038-0.977,0.079v2.881h2.112c0.521,0,0.928-0.039,1.221-0.116s0.531-0.183,0.714-0.317
			c0.184-0.134,0.319-0.301,0.409-0.5C106.726,291.445,106.771,291.223,106.771,290.979z M104.525,297.974
			c0.919,0,1.611-0.154,2.075-0.464c0.464-0.309,0.696-0.729,0.696-1.258c0-0.504-0.22-0.896-0.659-1.178
			c-0.439-0.28-1.147-0.421-2.124-0.421h-2.332v3.149c0.391,0.065,0.769,0.109,1.135,0.135
			C103.683,297.961,104.085,297.974,104.525,297.974z"/>
		<path fill="#FFFFFF" d="M124.337,293.701c0,0.977-0.139,1.869-0.415,2.68c-0.277,0.81-0.676,1.504-1.196,2.081
			c-0.521,0.578-1.16,1.025-1.917,1.343s-1.62,0.477-2.588,0.477c-0.92,0-1.742-0.135-2.466-0.403
			c-0.725-0.269-1.339-0.669-1.843-1.202c-0.505-0.533-0.891-1.201-1.16-2.002c-0.269-0.802-0.403-1.735-0.403-2.802
			c0-0.984,0.141-1.88,0.421-2.686c0.281-0.806,0.684-1.493,1.209-2.063c0.524-0.568,1.166-1.011,1.922-1.324
			c0.757-0.313,1.611-0.47,2.563-0.47c0.928,0,1.753,0.136,2.478,0.409c0.724,0.272,1.338,0.678,1.843,1.215
			c0.504,0.537,0.889,1.202,1.154,1.995C124.205,291.742,124.337,292.66,124.337,293.701z M121.236,293.774
			c0-1.286-0.242-2.252-0.727-2.899c-0.484-0.646-1.198-0.971-2.142-0.971c-0.521,0-0.964,0.103-1.331,0.306
			c-0.366,0.204-0.667,0.482-0.903,0.836c-0.236,0.354-0.409,0.768-0.519,1.239c-0.11,0.473-0.165,0.977-0.165,1.514
			c0,1.294,0.26,2.269,0.781,2.924c0.521,0.654,1.233,0.982,2.136,0.982c0.496,0,0.928-0.1,1.294-0.299s0.663-0.477,0.891-0.83
			c0.228-0.354,0.398-0.771,0.513-1.252C121.179,294.845,121.236,294.328,121.236,293.774z"/>
		<path fill="#FFFFFF" d="M138.741,297.498l-0.146,5.627h-2.759V300h-7.52v3.125h-2.747l-0.159-5.627h0.305
			c0.309,0,0.596-0.045,0.861-0.135c0.264-0.09,0.51-0.26,0.738-0.513c0.228-0.252,0.431-0.606,0.61-1.062
			c0.179-0.456,0.342-1.051,0.488-1.783s0.271-1.623,0.372-2.673c0.102-1.05,0.185-2.295,0.25-3.735h8.398v9.9H138.741z
			 M134.518,290.1h-2.771c-0.082,1.074-0.163,2.017-0.244,2.826c-0.082,0.811-0.188,1.51-0.317,2.1
			c-0.13,0.59-0.301,1.087-0.513,1.489c-0.212,0.403-0.415,0.731-0.61,0.983h4.456V290.1z"/>
		<path fill="#FFFFFF" d="M150.692,299.523c-0.586,0.236-1.192,0.412-1.819,0.525c-0.627,0.113-1.282,0.171-1.965,0.171
			c-0.985,0-1.868-0.134-2.649-0.403c-0.781-0.268-1.445-0.666-1.99-1.195c-0.545-0.529-0.962-1.185-1.251-1.966
			c-0.289-0.781-0.433-1.685-0.433-2.71c0-0.992,0.157-1.893,0.47-2.697c0.313-0.807,0.754-1.494,1.324-2.063
			c0.569-0.569,1.255-1.009,2.057-1.318c0.802-0.31,1.695-0.464,2.68-0.464c0.806,0,1.483,0.043,2.032,0.128
			c0.55,0.086,1.044,0.194,1.483,0.323v2.894c-0.505-0.252-1.052-0.447-1.642-0.586c-0.59-0.138-1.15-0.208-1.679-0.208
			c-0.554,0-1.05,0.094-1.489,0.281s-0.81,0.447-1.111,0.781c-0.301,0.334-0.531,0.738-0.69,1.215
			c-0.158,0.476-0.238,0.999-0.238,1.568c0,0.594,0.085,1.127,0.256,1.6c0.171,0.472,0.413,0.872,0.727,1.202
			c0.313,0.329,0.689,0.581,1.129,0.757c0.439,0.175,0.928,0.262,1.465,0.262c0.26,0,0.535-0.018,0.824-0.055
			c0.289-0.036,0.578-0.09,0.866-0.158c0.289-0.069,0.574-0.148,0.854-0.238c0.281-0.09,0.543-0.188,0.788-0.293V299.523z"/>
		<path fill="#FFFFFF" d="M161.092,290.1v9.9h-3.027v-9.9h-4.321v-2.502h11.67v2.502H161.092z"/>
		<path fill="#FFFFFF" d="M172.872,300.22c-0.83,0-1.65-0.03-2.46-0.092c-0.81-0.061-1.622-0.152-2.435-0.274V287.72
			c1.717-0.228,3.434-0.342,5.151-0.342c1.872,0,3.247,0.259,4.126,0.775s1.318,1.275,1.318,2.276c0,0.326-0.047,0.641-0.14,0.946
			c-0.094,0.305-0.238,0.586-0.434,0.842c-0.195,0.257-0.439,0.493-0.732,0.708c-0.293,0.216-0.643,0.389-1.05,0.52
			c0.407,0.049,0.789,0.146,1.147,0.293c0.358,0.146,0.673,0.338,0.946,0.573c0.272,0.236,0.488,0.522,0.646,0.86
			c0.159,0.338,0.238,0.715,0.238,1.129c0,1.336-0.539,2.322-1.617,2.961C176.5,299.9,174.931,300.22,172.872,300.22z
			 M175.497,290.979c0-0.455-0.2-0.799-0.598-1.031c-0.399-0.231-0.993-0.348-1.782-0.348c-0.497,0-0.908,0.006-1.233,0.019
			c-0.326,0.012-0.651,0.038-0.977,0.079v2.881h2.112c0.521,0,0.928-0.039,1.221-0.116s0.531-0.183,0.714-0.317
			c0.184-0.134,0.319-0.301,0.409-0.5C175.452,291.445,175.497,291.223,175.497,290.979z M173.25,297.974
			c0.919,0,1.611-0.154,2.075-0.464c0.464-0.309,0.696-0.729,0.696-1.258c0-0.504-0.22-0.896-0.659-1.178
			c-0.439-0.28-1.147-0.421-2.124-0.421h-2.332v3.149c0.391,0.065,0.769,0.109,1.135,0.135
			C172.408,297.961,172.811,297.974,173.25,297.974z"/>
		<path fill="#FFFFFF" d="M192.696,292.847c0,0.204-0.006,0.468-0.019,0.794c-0.012,0.325-0.03,0.631-0.055,0.915h-8.154
			c0,0.546,0.083,1.025,0.25,1.44s0.403,0.763,0.708,1.044c0.306,0.28,0.672,0.494,1.099,0.641c0.428,0.146,0.901,0.22,1.423,0.22
			c0.602,0,1.246-0.047,1.935-0.141c0.688-0.094,1.401-0.246,2.142-0.457v2.367c-0.316,0.09-0.663,0.172-1.037,0.244
			c-0.374,0.074-0.757,0.139-1.147,0.195s-0.785,0.1-1.185,0.129c-0.398,0.028-0.785,0.043-1.159,0.043
			c-0.944,0-1.79-0.135-2.539-0.403s-1.384-0.665-1.904-1.19c-0.521-0.524-0.92-1.174-1.196-1.947
			c-0.277-0.772-0.415-1.668-0.415-2.686c0-1.008,0.138-1.926,0.415-2.752c0.276-0.826,0.667-1.534,1.172-2.124
			c0.505-0.591,1.117-1.046,1.837-1.367c0.721-0.321,1.524-0.482,2.411-0.482c0.879,0,1.656,0.136,2.332,0.409
			c0.675,0.272,1.24,0.652,1.696,1.141s0.802,1.07,1.038,1.746C192.578,291.301,192.696,292.041,192.696,292.847z M189.669,292.42
			c0.008-0.488-0.053-0.914-0.184-1.276c-0.13-0.362-0.307-0.661-0.53-0.897c-0.225-0.235-0.484-0.41-0.781-0.524
			c-0.298-0.114-0.616-0.171-0.958-0.171c-0.749,0-1.363,0.25-1.844,0.751c-0.48,0.5-0.765,1.206-0.854,2.118H189.669z"/>
		<path fill="#FFFFFF" d="M203.243,300v-5.225h-4.821V300h-2.93v-12.402h2.93v4.65h4.821v-4.65h2.917V300H203.243z"/>
		<path fill="#FFFFFF" d="M216.988,300v-5.225h-4.821V300h-2.93v-12.402h2.93v4.65h4.821v-4.65h2.917V300H216.988z"/>
		<path fill="#FFFFFF" d="M230.904,300l-0.073-1.623c-0.261,0.276-0.533,0.53-0.817,0.763c-0.285,0.231-0.599,0.433-0.94,0.604
			c-0.342,0.17-0.714,0.303-1.117,0.396c-0.402,0.094-0.844,0.141-1.324,0.141c-0.635,0-1.192-0.094-1.673-0.281
			c-0.479-0.188-0.883-0.447-1.208-0.781s-0.572-0.736-0.738-1.209c-0.167-0.471-0.251-0.992-0.251-1.563
			c0-0.586,0.124-1.127,0.373-1.623c0.248-0.496,0.626-0.924,1.135-1.281c0.509-0.358,1.144-0.639,1.904-0.843
			c0.761-0.203,1.654-0.306,2.68-0.306h1.623v-0.744c0-0.317-0.044-0.604-0.134-0.86c-0.09-0.257-0.234-0.474-0.434-0.653
			c-0.199-0.179-0.458-0.317-0.774-0.415c-0.318-0.098-0.709-0.146-1.172-0.146c-0.732,0-1.455,0.083-2.167,0.25
			c-0.713,0.167-1.402,0.401-2.069,0.702v-2.381c0.594-0.235,1.279-0.431,2.057-0.586c0.777-0.154,1.585-0.231,2.424-0.231
			c0.919,0,1.709,0.087,2.367,0.263c0.66,0.175,1.203,0.438,1.63,0.787c0.428,0.35,0.743,0.787,0.946,1.313
			c0.203,0.524,0.305,1.137,0.305,1.837V300H230.904z M230.477,294.52h-1.818c-0.505,0-0.932,0.049-1.281,0.146
			c-0.351,0.098-0.635,0.231-0.855,0.402c-0.219,0.171-0.38,0.368-0.481,0.592c-0.103,0.225-0.153,0.463-0.153,0.715
			c0,0.504,0.163,0.889,0.488,1.153c0.326,0.265,0.77,0.396,1.331,0.396c0.415,0,0.847-0.15,1.294-0.452
			c0.447-0.301,0.939-0.732,1.477-1.293V294.52z"/>
		<path fill="#FFFFFF" d="M237.63,296.473c0.253-0.578,0.558-1,0.916-1.264c0.358-0.265,0.729-0.434,1.111-0.507
			c-0.407-0.065-0.78-0.185-1.117-0.36c-0.338-0.175-0.629-0.4-0.873-0.678c-0.244-0.275-0.434-0.594-0.567-0.951
			c-0.135-0.358-0.202-0.753-0.202-1.185c0-0.74,0.133-1.373,0.397-1.898c0.264-0.524,0.657-0.952,1.178-1.281
			c0.521-0.33,1.17-0.569,1.947-0.721c0.776-0.15,1.679-0.226,2.704-0.226c0.716,0,1.428,0.017,2.136,0.049
			c0.708,0.033,1.412,0.082,2.112,0.146V300h-2.918v-4.553h-1.172c-0.358,0-0.678,0.028-0.958,0.085
			c-0.281,0.058-0.537,0.146-0.77,0.269c-0.231,0.122-0.436,0.293-0.61,0.513s-0.307,0.464-0.396,0.732L239.474,300h-3.345
			L237.63,296.473z M240.048,291.479c0,0.351,0.066,0.64,0.201,0.866c0.134,0.229,0.331,0.412,0.592,0.55
			c0.261,0.139,0.582,0.236,0.965,0.293c0.382,0.058,0.821,0.085,1.318,0.085h1.33v-3.601c-0.236-0.024-0.479-0.038-0.727-0.043
			c-0.248-0.004-0.515-0.006-0.799-0.006c-1.156,0-1.925,0.155-2.308,0.464C240.238,290.397,240.048,290.861,240.048,291.479z"/>
		<path fill="#FFFFFF" d="M272.091,300l-4.663-6.201V300h-2.93v-12.402h2.93v5.249l4.395-5.249h3.675l-5.029,5.652l5.443,6.75
			H272.091z"/>
		<path fill="#FFFFFF" d="M289.278,293.701c0,0.977-0.139,1.869-0.415,2.68c-0.276,0.81-0.676,1.504-1.196,2.081
			c-0.521,0.578-1.159,1.025-1.917,1.343c-0.756,0.317-1.619,0.477-2.588,0.477c-0.919,0-1.741-0.135-2.465-0.403
			c-0.725-0.269-1.339-0.669-1.844-1.202s-0.891-1.201-1.16-2.002c-0.268-0.802-0.402-1.735-0.402-2.802
			c0-0.984,0.141-1.88,0.421-2.686c0.281-0.806,0.684-1.493,1.209-2.063c0.524-0.568,1.165-1.011,1.923-1.324
			c0.756-0.313,1.611-0.47,2.563-0.47c0.928,0,1.754,0.136,2.479,0.409c0.725,0.272,1.339,0.678,1.844,1.215
			c0.504,0.537,0.889,1.202,1.153,1.995C289.146,291.742,289.278,292.66,289.278,293.701z M286.178,293.774
			c0-1.286-0.242-2.252-0.727-2.899c-0.484-0.646-1.198-0.971-2.143-0.971c-0.521,0-0.964,0.103-1.33,0.306
			c-0.366,0.204-0.667,0.482-0.903,0.836c-0.236,0.354-0.409,0.768-0.519,1.239c-0.11,0.473-0.165,0.977-0.165,1.514
			c0,1.294,0.261,2.269,0.781,2.924c0.521,0.654,1.233,0.982,2.136,0.982c0.497,0,0.928-0.1,1.295-0.299
			c0.365-0.199,0.663-0.477,0.891-0.83c0.228-0.354,0.398-0.771,0.513-1.252C286.121,294.845,286.178,294.328,286.178,293.774z"/>
		<path fill="#FFFFFF" d="M300.704,300l-0.293-6.531l-0.109-3.015l-0.77,2.075l-1.77,4.565h-1.881l-1.599-4.565l-0.671-2.075
			l-0.086,2.966l-0.269,6.58h-2.552l0.781-12.402h3.395l1.403,3.857l0.671,2.148l0.672-2.051l1.477-3.955h3.455L303.353,300H300.704
			z"/>
		<path fill="#FFFFFF" d="M313.204,300v-9.852h-4.821V300h-2.93v-12.402h10.668V300H313.204z"/>
		<path fill="#FFFFFF" d="M327.12,300l-0.073-1.623c-0.261,0.276-0.533,0.53-0.817,0.763c-0.285,0.231-0.599,0.433-0.94,0.604
			c-0.342,0.17-0.714,0.303-1.117,0.396c-0.402,0.094-0.844,0.141-1.324,0.141c-0.635,0-1.192-0.094-1.673-0.281
			c-0.479-0.188-0.883-0.447-1.208-0.781s-0.572-0.736-0.738-1.209c-0.167-0.471-0.251-0.992-0.251-1.563
			c0-0.586,0.124-1.127,0.373-1.623c0.248-0.496,0.626-0.924,1.135-1.281c0.509-0.358,1.144-0.639,1.904-0.843
			c0.761-0.203,1.654-0.306,2.68-0.306h1.623v-0.744c0-0.317-0.044-0.604-0.134-0.86c-0.09-0.257-0.234-0.474-0.434-0.653
			c-0.199-0.179-0.458-0.317-0.774-0.415c-0.318-0.098-0.709-0.146-1.172-0.146c-0.732,0-1.455,0.083-2.167,0.25
			c-0.713,0.167-1.402,0.401-2.069,0.702v-2.381c0.594-0.235,1.279-0.431,2.057-0.586c0.777-0.154,1.585-0.231,2.424-0.231
			c0.919,0,1.709,0.087,2.367,0.263c0.66,0.175,1.203,0.438,1.63,0.787c0.428,0.35,0.743,0.787,0.946,1.313
			c0.203,0.524,0.305,1.137,0.305,1.837V300H327.12z M326.692,294.52h-1.818c-0.505,0-0.932,0.049-1.281,0.146
			c-0.351,0.098-0.635,0.231-0.855,0.402c-0.219,0.171-0.38,0.368-0.481,0.592c-0.103,0.225-0.153,0.463-0.153,0.715
			c0,0.504,0.163,0.889,0.488,1.153c0.326,0.265,0.77,0.396,1.331,0.396c0.415,0,0.847-0.15,1.294-0.452
			c0.447-0.301,0.939-0.732,1.477-1.293V294.52z"/>
		<path fill="#FFFFFF" d="M340.694,300v-5.225h-4.821V300h-2.93v-12.402h2.93v4.65h4.821v-4.65h2.917V300H340.694z"/>
		<path fill="#FFFFFF" d="M354.415,300v-7.752h-0.024L349.495,300h-2.819v-12.402h2.93v7.752h0.024l4.883-7.752h2.832V300H354.415z"
			/>
		<path fill="#FFFFFF" d="M361.336,296.473c0.253-0.578,0.558-1,0.916-1.264c0.358-0.265,0.729-0.434,1.111-0.507
			c-0.407-0.065-0.78-0.185-1.117-0.36c-0.338-0.175-0.629-0.4-0.873-0.678c-0.244-0.275-0.434-0.594-0.567-0.951
			c-0.135-0.358-0.202-0.753-0.202-1.185c0-0.74,0.133-1.373,0.397-1.898c0.264-0.524,0.657-0.952,1.178-1.281
			c0.521-0.33,1.17-0.569,1.947-0.721c0.776-0.15,1.679-0.226,2.704-0.226c0.716,0,1.428,0.017,2.136,0.049
			c0.708,0.033,1.412,0.082,2.112,0.146V300h-2.918v-4.553h-1.172c-0.358,0-0.678,0.028-0.958,0.085
			c-0.281,0.058-0.537,0.146-0.77,0.269c-0.231,0.122-0.436,0.293-0.61,0.513s-0.307,0.464-0.396,0.732L363.18,300h-3.345
			L361.336,296.473z M363.754,291.479c0,0.351,0.066,0.64,0.201,0.866c0.134,0.229,0.331,0.412,0.592,0.55
			c0.261,0.139,0.582,0.236,0.965,0.293c0.382,0.058,0.821,0.085,1.318,0.085h1.33v-3.601c-0.236-0.024-0.479-0.038-0.727-0.043
			c-0.248-0.004-0.515-0.006-0.799-0.006c-1.156,0-1.925,0.155-2.308,0.464C363.944,290.397,363.754,290.861,363.754,291.479z"/>
	</g>
</g>
</svg>
